<?xml version="1.0" encoding="UTF-8" ?>
<svg version="1.1" xmlns="http://www.w3.org/2000/svg" >
<path d="M0 0 C304.92 0 609.84 0 924 0 C924 193.05 924 386.1 924 585 C619.08 585 314.16 585 0 585 C0 391.95 0 198.9 0 0 Z " fill="#FEFEFE" transform="translate(0,0)" />
<path d="M0 0 C20.51159542 16.22306378 32.55629057 38.55788754 35.74609375 64.421875 C38.51489253 95.08349619 38.51489253 95.08349619 34.08984375 103.93359375 C34.68152344 103.87558594 35.27320313 103.81757813 35.8828125 103.7578125 C37.06810547 103.69013672 37.06810547 103.69013672 38.27734375 103.62109375 C39.05464844 103.56308594 39.83195313 103.50507813 40.6328125 103.4453125 C44.39377344 104.19272127 45.79687398 105.92984351 48.08984375 108.93359375 C49.90112171 119.14586488 47.30848108 129.27768175 44.08984375 138.93359375 C43.98799357 140.55753833 43.90738162 142.18286066 43.83984375 143.80859375 C43.13531963 152.35378954 39.91188008 160.83724646 35.08984375 167.93359375 C31.20766415 170.3810548 28.60950064 171.07914202 24.08984375 170.93359375 C24.05246094 171.54203125 24.01507812 172.15046875 23.9765625 172.77734375 C22.56443439 191.60571849 18.44110367 216.84152505 3.83984375 230.18359375 C-1.86141225 235.47603876 -2.83089096 240.85391676 -3.1484375 248.4453125 C-3.53886922 264.99764895 -1.1691993 279.27540747 10.6796875 291.83203125 C17.01929045 297.35991843 24.57314135 301.25424693 32.08984375 304.93359375 C32.08984375 305.26359375 32.08984375 305.59359375 32.08984375 305.93359375 C-30.94015625 305.93359375 -93.97015625 305.93359375 -158.91015625 305.93359375 C-158.91015625 305.60359375 -158.91015625 305.27359375 -158.91015625 304.93359375 C-158.183125 304.78664063 -157.45609375 304.6396875 -156.70703125 304.48828125 C-142.33848435 301.28299002 -129.86595594 294.84644728 -121.53515625 282.30859375 C-114.10566036 268.56824766 -112.71759215 251.87435625 -115.91015625 236.68359375 C-117.44867912 231.94406833 -120.00602006 229.64932421 -123.86328125 226.63671875 C-136.89225291 215.79581867 -141.28595086 192.48638775 -145.296875 176.98046875 C-145.72598428 174.95962968 -145.72598428 174.95962968 -146.91015625 173.93359375 C-148.84188211 173.86920289 -150.77424658 173.80815829 -152.70703125 173.80078125 C-156.43689392 172.33264382 -158.19813485 169.3897513 -159.91015625 165.93359375 C-160.94015081 162.3289687 -161.46660195 158.70634177 -161.97265625 154.99609375 C-163.03620131 148.00897857 -164.23900344 141.23528125 -166.16015625 134.43359375 C-168.24979947 126.34249519 -170.16441586 117.22955982 -166.76953125 109.25390625 C-164.3373187 105.6567919 -162.74615783 104.18129792 -158.53515625 102.93359375 C-157.66890625 102.93359375 -156.80265625 102.93359375 -155.91015625 102.93359375 C-156.06871094 101.92039062 -156.22726562 100.9071875 -156.390625 99.86328125 C-158.57331165 82.20794378 -158.25408093 62.94334093 -152.91015625 45.93359375 C-152.53632813 44.67804688 -152.1625 43.4225 -151.77734375 42.12890625 C-144.53551989 19.82792549 -127.11230244 3.8991731 -106.91015625 -7.06640625 C-74.02175709 -22.85574832 -30.33248514 -21.53810018 0 0 Z " fill="#1E2124" transform="translate(649.91015625,265.06640625)"/>
<path d="M0 0 C13.10387401 10.25947022 23.56019975 25.71722316 27.0625 42.1875 C27.12798492 43.76961573 27.14828381 45.35420081 27.125 46.9375 C27.11597656 47.73671875 27.10695312 48.5359375 27.09765625 49.359375 C27.08025391 50.26429688 27.08025391 50.26429688 27.0625 51.1875 C27.93272671 51.18473462 28.80295341 51.18196924 29.69955063 51.17912006 C50.90889511 51.11276429 72.1182216 51.06317279 93.32764816 51.03206348 C103.58451829 51.01661802 113.84131898 50.99557299 124.09814453 50.96118164 C133.04169776 50.93120811 141.98520067 50.91190814 150.92880273 50.90523452 C155.66101071 50.90133571 160.3930748 50.89222162 165.12523651 50.87030983 C169.58706448 50.84981883 174.04869043 50.84369148 178.51056099 50.84817696 C180.14066481 50.84735736 181.77077598 50.84146728 183.40083885 50.82988358 C197.39365013 50.73539523 209.90034246 51.71422649 220.62109375 61.62890625 C226.87283458 68.43718187 227.50161581 76.06596834 227.43139648 84.81933594 C227.4370462 86.37225342 227.4370462 86.37225342 227.44281006 87.95654297 C227.44922098 90.19359179 227.44893284 92.43066787 227.44262505 94.66771698 C227.43347704 98.21715857 227.44378252 101.76607611 227.45924377 105.31549072 C227.4992342 115.40335313 227.50055115 125.49117304 227.49829102 135.57910156 C227.49823972 141.76112925 227.5175043 147.9428744 227.54762459 154.12482452 C227.55838906 157.60568472 227.54635418 161.08599154 227.53379822 164.5668335 C227.49868026 184.78015851 227.49868026 184.78015851 237.625 201.76953125 C247.11531823 210.47605087 258.94726208 211.47947526 271.29541016 211.50634766 C272.9069397 211.52141609 272.9069397 211.52141609 274.55102539 211.53678894 C278.06786613 211.56744052 281.58463138 211.58460578 285.1015625 211.6015625 C287.55350384 211.62028865 290.00543883 211.63986313 292.45736694 211.6602478 C298.88519538 211.71142203 305.31304468 211.75112635 311.7409668 211.78839111 C318.31043597 211.82852319 324.87981948 211.87957345 331.44921875 211.9296875 C344.32025112 212.02627255 357.19133276 212.11110407 370.0625 212.1875 C370.0625 214.4975 370.0625 216.8075 370.0625 219.1875 C355.61496605 219.2343171 341.16744395 219.26940313 326.71984959 219.29112434 C320.01087971 219.30141655 313.30195711 219.31543735 306.59301758 219.33837891 C300.11559995 219.36014805 293.63823135 219.37207727 287.16077995 219.37725449 C284.69251674 219.38094291 282.22425614 219.38814547 279.75601387 219.39896011 C276.2924436 219.41352894 272.82907462 219.41547566 269.36547852 219.41455078 C268.35055328 219.42174133 267.33562805 219.42893188 266.28994751 219.43634033 C260.2762217 219.41902315 254.86618469 218.74900631 249.0625 217.1875 C248.29243402 216.99620577 247.52236803 216.80491154 246.72896671 216.60782051 C237.31478056 214.16778723 230.20786621 207.51547496 225.2421875 199.3515625 C220.60261227 190.84055364 219.91552795 183.17870549 219.9206543 173.62744141 C219.91544266 172.05069389 219.91544266 172.05069389 219.91012573 170.4420929 C219.90278886 168.16516266 219.89743249 165.88822537 219.89383507 163.61128616 C219.88664974 160.00441993 219.87096834 156.39768817 219.85249329 152.79086304 C219.80011512 142.53767719 219.75203997 132.28456685 219.73657227 122.03125 C219.7264833 115.75424968 219.69713893 109.47759087 219.65525246 103.20072556 C219.64295498 100.81261148 219.6378189 98.42444917 219.64005089 96.03630447 C219.64240748 92.6926153 219.62020989 89.34990445 219.5925293 86.00634766 C219.59913071 85.02530563 219.60573212 84.04426361 219.61253357 83.03349304 C219.51986859 76.19960056 218.27766433 70.36756429 213.2734375 65.41796875 C202.56381512 59.33399178 192.36108159 58.74196186 180.32177734 58.75512695 C178.64543949 58.74609705 176.96910821 58.73576683 175.29278564 58.72424316 C170.76871099 58.69679126 166.24476202 58.68740478 161.72061491 58.68138909 C156.98268931 58.67197454 152.24485646 58.64576874 147.50698853 58.62138367 C138.54710033 58.57779952 129.58723021 58.54920296 120.62726843 58.52606028 C110.4216148 58.49896518 100.21605485 58.45505638 90.01046824 58.40977156 C69.02786264 58.31704113 48.04522899 58.24530738 27.0625 58.1875 C27.07023438 59.28513672 27.07796875 60.38277344 27.0859375 61.51367188 C26.98138505 77.90226888 16.9055286 92.76775214 6.0859375 104.29296875 C-5.61214222 115.61863769 -20.87922547 121.51261578 -36.9375 122.1875 C-37.97003906 122.25195312 -39.00257812 122.31640625 -40.06640625 122.3828125 C-56.65309192 122.99336535 -72.08787374 116.65404247 -84.8203125 106.18359375 C-98.90327183 92.90611733 -107.64684657 75.5038058 -108.28125 56.07299805 C-108.56354212 35.65313275 -100.08075804 18.92302178 -85.9375 4.1875 C-61.15950224 -17.26713303 -26.60883528 -18.39853547 0 0 Z " fill="#FDFEFE" transform="translate(122.9375,140.8125)"/>
<path d="M0 0 C11.66775668 9.78795144 21.92710997 25.33000878 23.38696289 40.8737793 C24.27999407 60.02768413 19.3770012 76.59303252 6.6328125 91.28125 C-5.13760557 103.16448358 -20.63041027 109.79013935 -37.3125 110.0625 C-53.95964656 109.60618228 -68.43488966 105.11682528 -80.5703125 93.2265625 C-87.61060279 85.45035336 -93.00629085 77.53739497 -96.8125 67.75 C-97.245625 66.71875 -97.67875 65.6875 -98.125 64.625 C-98.76924506 61.9308843 -98.88281432 59.81978546 -98.85546875 57.0703125 C-98.84926514 56.26094238 -98.84306152 55.45157227 -98.83666992 54.61767578 C-98.82869385 54.00134277 -98.82071777 53.38500977 -98.8125 52.75 C-106.75058661 52.81178098 -114.68831139 52.88928108 -122.62604523 52.98571491 C-126.31366199 53.03004529 -130.00117769 53.06937794 -133.68896484 53.09643555 C-168.18273835 52.67147126 -168.18273835 52.67147126 -197.04296875 69.6015625 C-201.64117052 74.547711 -204.52785121 80.44674153 -206.8125 86.75 C-207.33118652 88.02230469 -207.33118652 88.02230469 -207.86035156 89.3203125 C-212.36344143 102.11729711 -211.48889898 115.73303786 -211.5625 129.125 C-211.59069983 131.71095715 -211.62063276 134.29689602 -211.65234375 136.8828125 C-211.72572946 143.17180334 -211.77765188 149.46068368 -211.8125 155.75 C-212.93838014 154.79270084 -214.0631715 153.83412105 -215.1875 152.875 C-215.81398438 152.34132813 -216.44046875 151.80765625 -217.0859375 151.2578125 C-220.77543621 148.03576159 -220.77543621 148.03576159 -221.0486908 145.92897034 C-221.0415657 145.19129929 -221.03444061 144.45362823 -221.02709961 143.69360352 C-221.02306625 142.85414688 -221.0190329 142.01469025 -221.01487732 141.14979553 C-220.99836624 140.23540207 -220.98185516 139.32100861 -220.96484375 138.37890625 C-220.95167618 137.42797592 -220.93850861 136.47704559 -220.92494202 135.49729919 C-220.89242559 133.47035248 -220.85419948 131.44349076 -220.81079102 129.41674805 C-220.75139487 126.38372794 -220.72718773 123.35184673 -220.70507812 120.31835938 C-220.41019128 100.68028545 -217.13720586 78.45242842 -202.875 63.6171875 C-194.99408904 56.48257493 -186.96336578 51.05833191 -176.8125 47.75 C-175.76288086 47.40396729 -174.71326172 47.05793457 -173.63183594 46.70141602 C-166.8127406 45.02984044 -159.69347121 45.50538124 -152.71875 45.5546875 C-151.16076846 45.55842316 -149.60278455 45.56126752 -148.0447998 45.56326294 C-143.96774677 45.57085592 -139.89083892 45.59046656 -135.81384277 45.6126709 C-131.64414432 45.63322331 -127.47442214 45.64228465 -123.3046875 45.65234375 C-115.14055879 45.67371706 -106.97654751 45.70779989 -98.8125 45.75 C-98.81725845 45.13058533 -98.82201691 44.51117065 -98.82691956 43.87298584 C-98.83247108 42.65533539 -98.83247108 42.65533539 -98.83813477 41.41308594 C-98.84289322 40.60804626 -98.84765167 39.80300659 -98.85255432 38.97357178 C-98.62548319 26.36796666 -89.45184223 12.3606877 -80.8125 3.75 C-56.78004977 -15.73155823 -25.51135527 -18.47681054 0 0 Z " fill="#FDFEFE" transform="translate(873.8125,120.25)"/>
<path d="M0 0 C8.31993233 6.81013766 16.71697921 17.97158153 18.08450317 28.88977051 C18.16634857 29.78272827 18.24819397 30.67568604 18.33251953 31.59570312 C18.41680206 32.49647583 18.50108459 33.39724854 18.58792114 34.32531738 C18.64914154 35.01202515 18.71036194 35.69873291 18.7734375 36.40625 C20.02385834 36.40180878 21.27427917 36.39736755 22.56259155 36.39279175 C34.41818619 36.35202964 46.27376638 36.32216276 58.12941551 36.30262566 C64.22270024 36.29224341 70.31592783 36.27818726 76.40917969 36.25537109 C82.30309221 36.23344258 88.19695021 36.22163972 94.09090042 36.21649551 C96.3256478 36.21283533 98.56039262 36.2056894 100.79511642 36.19478989 C132.55254204 36.04623303 166.31073785 38.89847656 190.46875 62.06640625 C191.60957031 63.22462891 191.60957031 63.22462891 192.7734375 64.40625 C193.55460937 65.18871094 194.33578125 65.97117187 195.140625 66.77734375 C213.4215174 86.01228946 218.1654285 111.41816207 217.96875 137.11328125 C217.96500821 138.57443546 217.96216677 140.03559223 217.96017456 141.49674988 C217.95262965 145.29590084 217.93306279 149.09489274 217.9107666 152.89398193 C217.89010816 156.78932546 217.88113061 160.68469532 217.87109375 164.58007812 C217.84980576 172.18887369 217.81578413 179.79753935 217.7734375 187.40625 C215.1334375 188.06625 212.4934375 188.72625 209.7734375 189.40625 C209.76979187 188.54419952 209.76614624 187.68214905 209.76239014 186.79397583 C209.72419875 178.58775325 209.66700133 170.3819156 209.58953476 162.17596626 C209.55036911 157.95925685 209.5180319 153.74274661 209.50244141 149.52587891 C209.48706747 145.44070208 209.45226798 141.35607409 209.40512848 137.27114487 C209.39052466 135.72864485 209.38240888 134.18606638 209.38155365 132.64349747 C209.35851308 111.88355472 204.9041163 91.98626826 191.7734375 75.40625 C191.24105469 74.71015625 190.70867187 74.0140625 190.16015625 73.296875 C176.27387621 56.19587142 152.83575703 48.21076326 131.64819336 45.82110596 C121.66888262 44.8628554 111.6009499 45.04207103 101.5859375 44.9921875 C99.18741212 44.9734402 96.78889308 44.95386425 94.39038086 44.9335022 C88.13032809 44.88255095 81.87025403 44.84272901 75.61010742 44.80535889 C69.20095716 44.76508503 62.79189265 44.71410032 56.3828125 44.6640625 C43.84641472 44.56774237 31.30996811 44.48319944 18.7734375 44.40625 C18.64501465 45.15680664 18.5165918 45.90736328 18.38427734 46.68066406 C18.21105957 47.66776367 18.0378418 48.65486328 17.859375 49.671875 C17.68970215 50.64930664 17.5200293 51.62673828 17.34521484 52.63378906 C14.8793954 64.59017062 6.55378491 75.52475814 -3.18359375 82.53515625 C-12.53887628 88.28763421 -21.57148338 90.9878085 -32.5390625 90.90625 C-33.45478027 90.89980469 -34.37049805 90.89335937 -35.31396484 90.88671875 C-48.89649868 90.52253721 -60.12911711 84.81913741 -69.51171875 75.01953125 C-74.05980293 69.60433569 -77.51066004 63.92853091 -80.2265625 57.40625 C-80.54625 56.65085937 -80.8659375 55.89546875 -81.1953125 55.1171875 C-85.22597268 43.95823015 -84.37538256 31.72188588 -79.9609375 20.859375 C-74.48898299 9.96476287 -67.80810058 1.73599181 -57.2265625 -4.59375 C-56.53820312 -5.02171875 -55.84984375 -5.4496875 -55.140625 -5.890625 C-37.56736879 -15.78903054 -15.59375662 -11.16184685 0 0 Z " fill="#FCFDFD" transform="translate(355.2265625,61.59375)"/>
<path d="M0 0 C8.6119885 7.66820894 17.25792522 20.11071771 18.14355469 31.91308594 C18.90023007 48.34268113 15.21320062 62.19368574 4.3125 74.9375 C-2.65129588 82.12354469 -12.00012139 88.16114316 -22 90 C-24.31 90 -26.62 90 -29 90 C-29 127.95 -29 165.9 -29 205 C-31.64 204.34 -34.28 203.68 -37 203 C-37 165.71 -37 128.42 -37 90 C-39.31 90 -41.62 90 -44 90 C-59.11390537 85.96590718 -69.69770307 77.25411044 -77.75 64.125 C-84.1724803 52.53567038 -85.87928798 40.66490963 -83.34375 27.625 C-81.14009287 20.33013501 -77.42985761 14.15691663 -73 8 C-72.53851562 7.34128906 -72.07703125 6.68257812 -71.6015625 6.00390625 C-67.43046561 0.59112445 -61.84528475 -2.61079122 -56 -6 C-55.01 -6.598125 -54.02 -7.19625 -53 -7.8125 C-35.00430595 -14.93579556 -15.38903576 -11.14378451 0 0 Z " fill="#FCFDFD" transform="translate(658,50)"/>
<path d="M0 0 C19.59376114 -0.1160023 39.18742452 -0.2051043 58.78145885 -0.25906086 C67.8803855 -0.28478555 76.97909417 -0.31982566 86.07788086 -0.37719727 C94.01320227 -0.42720867 101.94836573 -0.45933265 109.88384038 -0.47044247 C114.08133564 -0.4769314 118.27837924 -0.49206066 122.47572899 -0.52865028 C126.43617909 -0.56289115 130.39599665 -0.57299722 134.35658073 -0.56553841 C135.80084434 -0.56690055 137.24513175 -0.57666489 138.6892662 -0.59602737 C151.42802635 -0.75827388 163.51426308 1.85251839 172.98828125 10.8984375 C181.46337711 19.72989023 184.18170069 29.09829755 184.09765625 41.14453125 C184.09553383 42.2992115 184.09553383 42.2992115 184.09336853 43.47721863 C184.08779606 45.92235288 184.07524871 48.36739368 184.0625 50.8125 C184.05748144 52.47591013 184.05291915 54.1393217 184.04882812 55.80273438 C184.03783566 59.86852528 184.0205901 63.93424683 184 68 C184.98601196 68.17305664 184.98601196 68.17305664 185.99194336 68.34960938 C198.17896181 70.61321636 206.69398059 75.82831861 214 86 C220.93960594 97.99456101 223.43552863 109.91931423 220.12890625 123.60546875 C215.95765655 134.1771934 208.29444851 144.33377979 198 149.5078125 C186.97323031 154.23743185 174.85889931 156.33351632 163.1875 152.4375 C150.01130259 146.82686401 141.58371479 137.56330478 135.91015625 124.54296875 C132.16106573 114.06804202 133.08808712 103.06374101 137.453125 92.97265625 C143.79595935 80.78352257 154.00694402 72.33101866 167 68 C168.56118428 67.93259135 170.1250252 67.91485544 171.6875 67.9375 C172.49574219 67.94652344 173.30398438 67.95554687 174.13671875 67.96484375 C174.75160156 67.97644531 175.36648438 67.98804688 176 68 C175.93064344 63.0373657 175.84245087 58.07553583 175.73754883 53.11352539 C175.70450087 51.42904663 175.6764077 49.7444625 175.65356445 48.05981445 C175.59027755 31.46446724 175.59027755 31.46446724 168 17 C160.07041293 10.80114685 150.92777194 7.87103071 140.93193054 7.87974548 C139.10416328 7.87768349 139.10416328 7.87768349 137.23947144 7.87557983 C135.89752172 7.87911847 134.55557226 7.88275327 133.21362305 7.88647461 C131.79418439 7.88675682 130.37474558 7.88659809 128.95530701 7.8860321 C125.10860551 7.88574545 121.26193525 7.89162095 117.415241 7.89860606 C113.39269911 7.90486147 109.37015648 7.90544513 105.34761047 7.90663147 C97.73333712 7.90973833 90.11907814 7.91794304 82.50481111 7.92798096 C73.83497092 7.93916211 65.16513004 7.9446576 56.49528444 7.94967639 C38.66351481 7.96012618 20.83175856 7.97771315 3 8 C2.67 9.32 2.34 10.64 2 12 C1.34 8.04 0.68 4.08 0 0 Z " fill="#FCFDFD" transform="translate(682,315)"/>
<path d="M0 0 C2.97086679 0.8937153 5.70313745 0.92967878 8.80078125 1.0234375 C16.45304167 1.44954945 21.23505425 4.39312099 26.42578125 9.8984375 C28.47536659 11.81579153 29.74281584 12.28296269 32.36328125 13.1484375 C37.00896084 14.72295088 39.18066923 17.34571346 41.36328125 21.7109375 C41.40327325 23.71053762 41.40674924 25.71140992 41.36328125 27.7109375 C42.94109375 27.7728125 42.94109375 27.7728125 44.55078125 27.8359375 C49.58828944 28.99208692 50.47553294 30.54918259 53.36328125 34.7109375 C54.6891932 37.36276141 54.51109449 39.56367107 54.61328125 42.5234375 C55.01272899 48.23080094 56.28739375 49.73955993 60.36328125 53.7109375 C61.30279643 59.21907552 60.485067 63.61865171 58.36328125 68.7109375 C58.65680623 71.7048923 59.01802653 74.02042805 60.36328125 76.7109375 C60.9287105 82.75668104 60.72459783 87.46728363 57.36328125 92.7109375 C55.66659918 94.40761957 53.55196107 93.83062743 51.28887939 93.83535767 C50.56311707 93.83176239 49.83735474 93.82816711 49.08959961 93.82446289 C47.94821281 93.82468193 47.94821281 93.82468193 46.7837677 93.8249054 C44.25685827 93.82420612 41.73002163 93.81641305 39.203125 93.80859375 C37.45577535 93.80672962 35.70842518 93.8053057 33.96107483 93.80430603 C29.35296191 93.80048043 24.7448803 93.79064979 20.13677979 93.77960205 C15.43819604 93.76938884 10.73960726 93.7648086 6.04101562 93.75976562 C-3.18490962 93.74902755 -12.41081159 93.73195063 -21.63671875 93.7109375 C-21.77588172 82.35821611 -21.88242273 71.00569839 -21.94759178 59.65229702 C-21.97887364 54.38011434 -22.02128945 49.1085162 -22.08935547 43.83666992 C-22.15465955 38.74675331 -22.19044845 33.65739809 -22.20598221 28.5670948 C-22.21704869 26.62740303 -22.23865962 24.68774118 -22.27109909 22.74828911 C-22.31481021 20.02610328 -22.32064687 17.30622185 -22.31787109 14.58374023 C-22.33944275 13.78604218 -22.3610144 12.98834412 -22.38323975 12.16647339 C-22.32381711 6.76260513 -20.87762027 3.9858898 -17.21824074 0.02790928 C-11.99698562 -4.3199567 -5.62655227 -2.38172504 0 0 Z " fill="#FCFBFB" transform="translate(613.63671875,269.2890625)"/>
<path d="M0 0 C3.70042836 1.68201289 5.98902811 3.47351468 8 7 C8.28051692 9.91217417 8.38967692 12.60635788 8.35644531 15.51635742 C8.35848969 16.37364944 8.36053406 17.23094147 8.36264038 18.11421204 C8.36564608 20.94484862 8.34718113 23.77490152 8.328125 26.60546875 C8.32506756 28.57033646 8.32319133 30.53520634 8.32244873 32.50007629 C8.31784738 36.61496288 8.303425 40.72965357 8.28125 44.84448242 C8.252912 50.13094723 8.2420328 55.41725807 8.2375679 60.70379162 C8.23342128 64.75883029 8.22361108 68.81383755 8.21169281 72.86886024 C8.20597878 74.81900085 8.20122385 76.7691445 8.19742584 78.71928978 C8.19058744 81.4368566 8.17696815 84.1542988 8.16113281 86.87182617 C8.16001495 87.68481171 8.15889709 88.49779724 8.15774536 89.3354187 C8.11468969 94.88531031 8.11468969 94.88531031 7 96 C4.73008113 96.09439978 2.45718033 96.11742226 0.18530273 96.11352539 C-0.88293228 96.11374443 -0.88293228 96.11374443 -1.9727478 96.1139679 C-4.33733112 96.1132687 -6.70183661 96.10547606 -9.06640625 96.09765625 C-10.70165463 96.09579209 -12.33690357 96.09436818 -13.97215271 96.09336853 C-18.28434785 96.08954318 -22.59650952 96.07971275 -26.90869141 96.06866455 C-31.30565946 96.0584508 -35.70263289 96.05387099 -40.09960938 96.04882812 C-48.73308831 96.03809049 -57.36654 96.02101387 -66 96 C-69.40435163 90.22263735 -70.91324034 86.77855859 -70 80 C-69.4740625 78.7315625 -69.4740625 78.7315625 -68.9375 77.4375 C-67.21927801 72.97012282 -68.51464776 68.45605673 -70 64 C-70.375 60.6875 -70.375 60.6875 -70 57 C-68.73997963 55.57843855 -67.47561492 54.15948462 -66.16015625 52.7890625 C-64.59401447 50.37393477 -64.62205178 48.48337397 -64.5 45.625 C-64.21202227 40.06248287 -62.96538561 36.03637717 -59 32 C-57.2365625 31.319375 -57.2365625 31.319375 -55.4375 30.625 C-51.89862841 29.39218298 -51.89862841 29.39218298 -50.91015625 26.74609375 C-50.60980469 25.86050781 -50.30945313 24.97492188 -50 24.0625 C-48.76107028 20.41483567 -47.9424396 18.40004557 -44.5625 16.4375 C-41 15 -41 15 -38.1875 14.5 C-37.465625 14.335 -36.74375 14.17 -36 14 C-35.29605388 12.68596724 -34.63654342 11.3479743 -34 10 C-29.55474083 5.68066886 -26.4545271 3.94867019 -20.3125 3.625 C-16.6066118 3.35523964 -13.53989785 3.06777567 -10.1875 1.4375 C-6.45545816 -0.24557769 -4.05367466 -0.4504083 0 0 Z " fill="#FBFBFB" transform="translate(576,267)"/>
<path d="M0 0 C13.10387401 10.25947022 23.56019975 25.71722316 27.0625 42.1875 C27.12798492 43.76961573 27.14828381 45.35420081 27.125 46.9375 C27.11597656 47.73671875 27.10695312 48.5359375 27.09765625 49.359375 C27.08025391 50.26429688 27.08025391 50.26429688 27.0625 51.1875 C27.93272671 51.18473462 28.80295341 51.18196924 29.69955063 51.17912006 C50.90889511 51.11276429 72.1182216 51.06317279 93.32764816 51.03206348 C103.58451829 51.01661802 113.84131898 50.99557299 124.09814453 50.96118164 C133.04169776 50.93120811 141.98520067 50.91190814 150.92880273 50.90523452 C155.66101071 50.90133571 160.3930748 50.89222162 165.12523651 50.87030983 C169.58706448 50.84981883 174.04869043 50.84369148 178.51056099 50.84817696 C180.14066481 50.84735736 181.77077598 50.84146728 183.40083885 50.82988358 C197.39365013 50.73539523 209.90034246 51.71422649 220.62109375 61.62890625 C226.87283458 68.43718187 227.50161581 76.06596834 227.43139648 84.81933594 C227.4370462 86.37225342 227.4370462 86.37225342 227.44281006 87.95654297 C227.44922098 90.19359179 227.44893284 92.43066787 227.44262505 94.66771698 C227.43347704 98.21715857 227.44378252 101.76607611 227.45924377 105.31549072 C227.4992342 115.40335313 227.50055115 125.49117304 227.49829102 135.57910156 C227.49823972 141.76112925 227.5175043 147.9428744 227.54762459 154.12482452 C227.55838906 157.60568472 227.54635418 161.08599154 227.53379822 164.5668335 C227.49868026 184.78015851 227.49868026 184.78015851 237.625 201.76953125 C247.11531823 210.47605087 258.94726208 211.47947526 271.29541016 211.50634766 C272.9069397 211.52141609 272.9069397 211.52141609 274.55102539 211.53678894 C278.06786613 211.56744052 281.58463138 211.58460578 285.1015625 211.6015625 C287.55350384 211.62028865 290.00543883 211.63986313 292.45736694 211.6602478 C298.88519538 211.71142203 305.31304468 211.75112635 311.7409668 211.78839111 C318.31043597 211.82852319 324.87981948 211.87957345 331.44921875 211.9296875 C344.32025112 212.02627255 357.19133276 212.11110407 370.0625 212.1875 C370.0625 214.4975 370.0625 216.8075 370.0625 219.1875 C355.61496605 219.2343171 341.16744395 219.26940313 326.71984959 219.29112434 C320.01087971 219.30141655 313.30195711 219.31543735 306.59301758 219.33837891 C300.11559995 219.36014805 293.63823135 219.37207727 287.16077995 219.37725449 C284.69251674 219.38094291 282.22425614 219.38814547 279.75601387 219.39896011 C276.2924436 219.41352894 272.82907462 219.41547566 269.36547852 219.41455078 C268.35055328 219.42174133 267.33562805 219.42893188 266.28994751 219.43634033 C260.2762217 219.41902315 254.86618469 218.74900631 249.0625 217.1875 C248.29243402 216.99620577 247.52236803 216.80491154 246.72896671 216.60782051 C237.31478056 214.16778723 230.20786621 207.51547496 225.2421875 199.3515625 C220.60261227 190.84055364 219.91552795 183.17870549 219.9206543 173.62744141 C219.91544266 172.05069389 219.91544266 172.05069389 219.91012573 170.4420929 C219.90278886 168.16516266 219.89743249 165.88822537 219.89383507 163.61128616 C219.88664974 160.00441993 219.87096834 156.39768817 219.85249329 152.79086304 C219.80011512 142.53767719 219.75203997 132.28456685 219.73657227 122.03125 C219.7264833 115.75424968 219.69713893 109.47759087 219.65525246 103.20072556 C219.64295498 100.81261148 219.6378189 98.42444917 219.64005089 96.03630447 C219.64240748 92.6926153 219.62020989 89.34990445 219.5925293 86.00634766 C219.59913071 85.02530563 219.60573212 84.04426361 219.61253357 83.03349304 C219.51986859 76.19960056 218.27766433 70.36756429 213.2734375 65.41796875 C202.56381512 59.33399178 192.36108159 58.74196186 180.32177734 58.75512695 C178.64543949 58.74609705 176.96910821 58.73576683 175.29278564 58.72424316 C170.76871099 58.69679126 166.24476202 58.68740478 161.72061491 58.68138909 C156.98268931 58.67197454 152.24485646 58.64576874 147.50698853 58.62138367 C138.54710033 58.57779952 129.58723021 58.54920296 120.62726843 58.52606028 C110.4216148 58.49896518 100.21605485 58.45505638 90.01046824 58.40977156 C69.02786264 58.31704113 48.04522899 58.24530738 27.0625 58.1875 C27.07023438 59.28513672 27.07796875 60.38277344 27.0859375 61.51367188 C26.98138505 77.90226888 16.9055286 92.76775214 6.0859375 104.29296875 C-5.61214222 115.61863769 -20.87922547 121.51261578 -36.9375 122.1875 C-37.97003906 122.25195312 -39.00257812 122.31640625 -40.06640625 122.3828125 C-56.65309192 122.99336535 -72.08787374 116.65404247 -84.8203125 106.18359375 C-98.90327183 92.90611733 -107.64684657 75.5038058 -108.28125 56.07299805 C-108.56354212 35.65313275 -100.08075804 18.92302178 -85.9375 4.1875 C-61.15950224 -17.26713303 -26.60883528 -18.39853547 0 0 Z M-85.9375 13.1875 C-98.33774552 28.79163671 -103.67653868 44.32865677 -101.9375 64.1875 C-98.8571365 81.17561247 -88.72038811 95.91191367 -75 106.125 C-60.00759996 115.85108231 -42.65082569 118.40386793 -25.1796875 115.13671875 C-8.91026313 110.37350174 5.08418532 100.20249918 13.26953125 85.26953125 C14.00072018 83.87161752 14.72344341 82.46924206 15.4375 81.0625 C15.77144775 80.40580322 16.10539551 79.74910645 16.44946289 79.07250977 C22.58832234 66.4236481 23.30650059 50.61928966 19.5 37.125 C13.44973949 20.73006331 2.83715013 6.92585568 -12.9375 -0.8125 C-38.29964798 -11.62889237 -66.81480301 -7.47984134 -85.9375 13.1875 Z " fill="#40C3D2" transform="translate(122.9375,140.8125)"/>
<path d="M0 0 C2.00553362 2.6179571 2.32812444 4.97826849 2.9375 8.21240234 C3.30657471 10.13717407 3.30657471 10.13717407 3.68310547 12.10083008 C3.93514067 13.48427121 4.18659479 14.86781832 4.4375 16.25146484 C4.70019284 17.65398198 4.96337874 19.05640686 5.22705078 20.45874023 C7.2900924 31.55221432 9.01484798 42.68243971 10.4375 53.87646484 C12.0875 54.20646484 13.7375 54.53646484 15.4375 54.87646484 C18.07279412 61.95881778 18.07279412 61.95881778 17.4375 65.87646484 C14.14987764 69.12702037 10.40341104 69.75303081 6.0078125 70.52490234 C5.27293106 70.66267593 4.53804962 70.80044952 3.78089905 70.94239807 C1.37666299 71.38986068 -1.03013774 71.82116568 -3.4375 72.25146484 C-5.10256583 72.5562946 -6.76752272 72.86172004 -8.43237305 73.16772461 C-13.47254501 74.08893845 -18.51701795 74.9848689 -23.5625 75.87646484 C-24.32697449 76.01240051 -25.09144897 76.14833618 -25.87908936 76.28839111 C-30.70828252 77.1470287 -35.54024641 77.98718365 -40.375 78.81396484 C-41.59364746 79.02520996 -42.81229492 79.23645508 -44.06787109 79.45410156 C-55.88128686 81.42105451 -55.88128686 81.42105451 -61.5625 80.87646484 C-63.42601199 78.08119686 -63.90558907 77.03600857 -64.3125 73.87646484 C-64.41046875 73.19583984 -64.5084375 72.51521484 -64.609375 71.81396484 C-64.5625 69.87646484 -64.5625 69.87646484 -62.5625 66.87646484 C-61.9025 66.87646484 -61.2425 66.87646484 -60.5625 66.87646484 C-61.37998983 62.23569119 -62.19787843 57.59498805 -63.01611328 52.9543457 C-63.29356273 51.3804711 -63.57090916 49.80657834 -63.84814453 48.23266602 C-64.11744159 46.70389482 -64.38690016 45.17515207 -64.65652466 43.6464386 C-64.92138499 42.1442337 -65.18577107 40.64194509 -65.44967651 39.13957214 C-66.18549687 34.96217194 -66.95653645 30.79338056 -67.75 26.62646484 C-68.39325209 23.10735942 -68.79156832 19.77932195 -68.6875 16.18896484 C-68.66945313 15.36009766 -68.65140625 14.53123047 -68.6328125 13.67724609 C-68.60960937 13.08298828 -68.58640625 12.48873047 -68.5625 11.87646484 C-62.7633351 9.05287145 -57.22320941 7.93093916 -50.875 6.93896484 C-48.8238632 6.60127368 -46.7730868 6.26138688 -44.72265625 5.91943359 C-43.69414551 5.74847168 -42.66563477 5.57750977 -41.60595703 5.40136719 C-36.99013418 4.6052803 -32.40162321 3.68774264 -27.8125 2.75146484 C-26.57439575 2.5007019 -26.57439575 2.5007019 -25.3112793 2.24487305 C-23.7572451 1.93007785 -22.20328529 1.61491509 -20.64941406 1.29931641 C-3.12979422 -2.25051766 -3.12979422 -2.25051766 0 0 Z " fill="#D6D6D6" transform="translate(436.5625,148.12353515625)"/>
<path d="M0 0 C8.31993233 6.81013766 16.71697921 17.97158153 18.08450317 28.88977051 C18.16634857 29.78272827 18.24819397 30.67568604 18.33251953 31.59570312 C18.41680206 32.49647583 18.50108459 33.39724854 18.58792114 34.32531738 C18.64914154 35.01202515 18.71036194 35.69873291 18.7734375 36.40625 C20.02385834 36.40180878 21.27427917 36.39736755 22.56259155 36.39279175 C34.41818619 36.35202964 46.27376638 36.32216276 58.12941551 36.30262566 C64.22270024 36.29224341 70.31592783 36.27818726 76.40917969 36.25537109 C82.30309221 36.23344258 88.19695021 36.22163972 94.09090042 36.21649551 C96.3256478 36.21283533 98.56039262 36.2056894 100.79511642 36.19478989 C132.55254204 36.04623303 166.31073785 38.89847656 190.46875 62.06640625 C191.60957031 63.22462891 191.60957031 63.22462891 192.7734375 64.40625 C193.55460937 65.18871094 194.33578125 65.97117187 195.140625 66.77734375 C213.4215174 86.01228946 218.1654285 111.41816207 217.96875 137.11328125 C217.96500821 138.57443546 217.96216677 140.03559223 217.96017456 141.49674988 C217.95262965 145.29590084 217.93306279 149.09489274 217.9107666 152.89398193 C217.89010816 156.78932546 217.88113061 160.68469532 217.87109375 164.58007812 C217.84980576 172.18887369 217.81578413 179.79753935 217.7734375 187.40625 C215.1334375 188.06625 212.4934375 188.72625 209.7734375 189.40625 C209.76979187 188.54419952 209.76614624 187.68214905 209.76239014 186.79397583 C209.72419875 178.58775325 209.66700133 170.3819156 209.58953476 162.17596626 C209.55036911 157.95925685 209.5180319 153.74274661 209.50244141 149.52587891 C209.48706747 145.44070208 209.45226798 141.35607409 209.40512848 137.27114487 C209.39052466 135.72864485 209.38240888 134.18606638 209.38155365 132.64349747 C209.35851308 111.88355472 204.9041163 91.98626826 191.7734375 75.40625 C191.24105469 74.71015625 190.70867187 74.0140625 190.16015625 73.296875 C176.27387621 56.19587142 152.83575703 48.21076326 131.64819336 45.82110596 C121.66888262 44.8628554 111.6009499 45.04207103 101.5859375 44.9921875 C99.18741212 44.9734402 96.78889308 44.95386425 94.39038086 44.9335022 C88.13032809 44.88255095 81.87025403 44.84272901 75.61010742 44.80535889 C69.20095716 44.76508503 62.79189265 44.71410032 56.3828125 44.6640625 C43.84641472 44.56774237 31.30996811 44.48319944 18.7734375 44.40625 C18.64501465 45.15680664 18.5165918 45.90736328 18.38427734 46.68066406 C18.21105957 47.66776367 18.0378418 48.65486328 17.859375 49.671875 C17.68970215 50.64930664 17.5200293 51.62673828 17.34521484 52.63378906 C14.8793954 64.59017062 6.55378491 75.52475814 -3.18359375 82.53515625 C-12.53887628 88.28763421 -21.57148338 90.9878085 -32.5390625 90.90625 C-33.45478027 90.89980469 -34.37049805 90.89335937 -35.31396484 90.88671875 C-48.89649868 90.52253721 -60.12911711 84.81913741 -69.51171875 75.01953125 C-74.05980293 69.60433569 -77.51066004 63.92853091 -80.2265625 57.40625 C-80.54625 56.65085937 -80.8659375 55.89546875 -81.1953125 55.1171875 C-85.22597268 43.95823015 -84.37538256 31.72188588 -79.9609375 20.859375 C-74.48898299 9.96476287 -67.80810058 1.73599181 -57.2265625 -4.59375 C-56.53820312 -5.02171875 -55.84984375 -5.4496875 -55.140625 -5.890625 C-37.56736879 -15.78903054 -15.59375662 -11.16184685 0 0 Z M-65.9140625 9.96875 C-74.53176105 20.38777271 -78.21839171 32.07802504 -77.453125 45.42236328 C-76.18888958 56.49259711 -69.20622362 67.20068493 -61.28125 74.7734375 C-49.48022941 84.15143485 -36.8075783 85.88367403 -22.2265625 84.40625 C-17.80847614 83.30762233 -14.15231538 81.68669505 -10.2265625 79.40625 C-9.01806641 78.75462891 -9.01806641 78.75462891 -7.78515625 78.08984375 C3.14151615 71.60039872 8.53626741 61.30572499 12.37890625 49.5546875 C14.61389788 37.38394101 12.88971361 26.37900781 6.19921875 15.953125 C-1.29570296 5.68036517 -10.1944278 -1.0281549 -22.609375 -4.203125 C-39.53754431 -6.72971743 -53.85553515 -2.5731927 -65.9140625 9.96875 Z " fill="#45C4D4" transform="translate(355.2265625,61.59375)"/>
<path d="M0 0 C11.66775668 9.78795144 21.92710997 25.33000878 23.38696289 40.8737793 C24.27999407 60.02768413 19.3770012 76.59303252 6.6328125 91.28125 C-5.13760557 103.16448358 -20.63041027 109.79013935 -37.3125 110.0625 C-53.95964656 109.60618228 -68.43488966 105.11682528 -80.5703125 93.2265625 C-87.61060279 85.45035336 -93.00629085 77.53739497 -96.8125 67.75 C-97.245625 66.71875 -97.67875 65.6875 -98.125 64.625 C-98.76924506 61.9308843 -98.88281432 59.81978546 -98.85546875 57.0703125 C-98.84926514 56.26094238 -98.84306152 55.45157227 -98.83666992 54.61767578 C-98.82869385 54.00134277 -98.82071777 53.38500977 -98.8125 52.75 C-106.75058661 52.81178098 -114.68831139 52.88928108 -122.62604523 52.98571491 C-126.31366199 53.03004529 -130.00117769 53.06937794 -133.68896484 53.09643555 C-168.18273835 52.67147126 -168.18273835 52.67147126 -197.04296875 69.6015625 C-201.64117052 74.547711 -204.52785121 80.44674153 -206.8125 86.75 C-207.33118652 88.02230469 -207.33118652 88.02230469 -207.86035156 89.3203125 C-212.36344143 102.11729711 -211.48889898 115.73303786 -211.5625 129.125 C-211.59069983 131.71095715 -211.62063276 134.29689602 -211.65234375 136.8828125 C-211.72572946 143.17180334 -211.77765188 149.46068368 -211.8125 155.75 C-212.93838014 154.79270084 -214.0631715 153.83412105 -215.1875 152.875 C-215.81398438 152.34132813 -216.44046875 151.80765625 -217.0859375 151.2578125 C-220.77543621 148.03576159 -220.77543621 148.03576159 -221.0486908 145.92897034 C-221.0415657 145.19129929 -221.03444061 144.45362823 -221.02709961 143.69360352 C-221.02306625 142.85414688 -221.0190329 142.01469025 -221.01487732 141.14979553 C-220.99836624 140.23540207 -220.98185516 139.32100861 -220.96484375 138.37890625 C-220.95167618 137.42797592 -220.93850861 136.47704559 -220.92494202 135.49729919 C-220.89242559 133.47035248 -220.85419948 131.44349076 -220.81079102 129.41674805 C-220.75139487 126.38372794 -220.72718773 123.35184673 -220.70507812 120.31835938 C-220.41019128 100.68028545 -217.13720586 78.45242842 -202.875 63.6171875 C-194.99408904 56.48257493 -186.96336578 51.05833191 -176.8125 47.75 C-175.76288086 47.40396729 -174.71326172 47.05793457 -173.63183594 46.70141602 C-166.8127406 45.02984044 -159.69347121 45.50538124 -152.71875 45.5546875 C-151.16076846 45.55842316 -149.60278455 45.56126752 -148.0447998 45.56326294 C-143.96774677 45.57085592 -139.89083892 45.59046656 -135.81384277 45.6126709 C-131.64414432 45.63322331 -127.47442214 45.64228465 -123.3046875 45.65234375 C-115.14055879 45.67371706 -106.97654751 45.70779989 -98.8125 45.75 C-98.81725845 45.13058533 -98.82201691 44.51117065 -98.82691956 43.87298584 C-98.83247108 42.65533539 -98.83247108 42.65533539 -98.83813477 41.41308594 C-98.84289322 40.60804626 -98.84765167 39.80300659 -98.85255432 38.97357178 C-98.62548319 26.36796666 -89.45184223 12.3606877 -80.8125 3.75 C-56.78004977 -15.73155823 -25.51135527 -18.47681054 0 0 Z M-78.08984375 9.53515625 C-90.67393968 25.71470816 -94.47268583 40.21112963 -92.8125 60.75 C-91.27467503 69.52719002 -86.24800192 76.88472475 -80.8125 83.75 C-80.30203125 84.44738281 -79.7915625 85.14476562 -79.265625 85.86328125 C-72.58314712 94.38178647 -62.30376796 100.27061831 -51.8125 102.75 C-50.67361328 103.02457031 -50.67361328 103.02457031 -49.51171875 103.3046875 C-35.00110243 105.6986242 -19.7978321 103.05569791 -7.33203125 95.18359375 C5.40641048 85.73390634 14.65529753 72.5377319 17.1875 56.75 C18.68883084 38.10249941 13.65454721 25.64963391 2.875 10.5 C-8.57902305 -1.22039568 -23.03819995 -6.33028542 -39.125 -6.625 C-53.48552897 -6.58404642 -68.17254288 -1.21061693 -78.08984375 9.53515625 Z " fill="#43C4D3" transform="translate(873.8125,120.25)"/>
<path d="M0 0 C19.59376114 -0.1160023 39.18742452 -0.2051043 58.78145885 -0.25906086 C67.8803855 -0.28478555 76.97909417 -0.31982566 86.07788086 -0.37719727 C94.01320227 -0.42720867 101.94836573 -0.45933265 109.88384038 -0.47044247 C114.08133564 -0.4769314 118.27837924 -0.49206066 122.47572899 -0.52865028 C126.43617909 -0.56289115 130.39599665 -0.57299722 134.35658073 -0.56553841 C135.80084434 -0.56690055 137.24513175 -0.57666489 138.6892662 -0.59602737 C151.42802635 -0.75827388 163.51426308 1.85251839 172.98828125 10.8984375 C181.46337711 19.72989023 184.18170069 29.09829755 184.09765625 41.14453125 C184.09553383 42.2992115 184.09553383 42.2992115 184.09336853 43.47721863 C184.08779606 45.92235288 184.07524871 48.36739368 184.0625 50.8125 C184.05748144 52.47591013 184.05291915 54.1393217 184.04882812 55.80273438 C184.03783566 59.86852528 184.0205901 63.93424683 184 68 C184.98601196 68.17305664 184.98601196 68.17305664 185.99194336 68.34960938 C198.17896181 70.61321636 206.69398059 75.82831861 214 86 C220.93960594 97.99456101 223.43552863 109.91931423 220.12890625 123.60546875 C215.95765655 134.1771934 208.29444851 144.33377979 198 149.5078125 C186.97323031 154.23743185 174.85889931 156.33351632 163.1875 152.4375 C150.01130259 146.82686401 141.58371479 137.56330478 135.91015625 124.54296875 C132.16106573 114.06804202 133.08808712 103.06374101 137.453125 92.97265625 C143.79595935 80.78352257 154.00694402 72.33101866 167 68 C168.56118428 67.93259135 170.1250252 67.91485544 171.6875 67.9375 C172.49574219 67.94652344 173.30398438 67.95554687 174.13671875 67.96484375 C174.75160156 67.97644531 175.36648438 67.98804688 176 68 C175.93064344 63.0373657 175.84245087 58.07553583 175.73754883 53.11352539 C175.70450087 51.42904663 175.6764077 49.7444625 175.65356445 48.05981445 C175.59027755 31.46446724 175.59027755 31.46446724 168 17 C160.07041293 10.80114685 150.92777194 7.87103071 140.93193054 7.87974548 C139.10416328 7.87768349 139.10416328 7.87768349 137.23947144 7.87557983 C135.89752172 7.87911847 134.55557226 7.88275327 133.21362305 7.88647461 C131.79418439 7.88675682 130.37474558 7.88659809 128.95530701 7.8860321 C125.10860551 7.88574545 121.26193525 7.89162095 117.415241 7.89860606 C113.39269911 7.90486147 109.37015648 7.90544513 105.34761047 7.90663147 C97.73333712 7.90973833 90.11907814 7.91794304 82.50481111 7.92798096 C73.83497092 7.93916211 65.16513004 7.9446576 56.49528444 7.94967639 C38.66351481 7.96012618 20.83175856 7.97771315 3 8 C2.67 9.32 2.34 10.64 2 12 C1.34 8.04 0.68 4.08 0 0 Z M149.9609375 85.17578125 C141.82127725 95.20314994 138.97676693 104.09264573 140 117 C142.34886108 127.7962711 149.03165299 136.67394017 158 143 C162.89045894 146.02143206 167.2053287 147.62002155 173 148 C173.9590625 148.07476562 174.918125 148.14953125 175.90625 148.2265625 C186.44023351 148.70309985 194.70475005 146.04817429 202.875 139.3125 C207.24352692 135.12632539 210.31373214 130.39895803 213 125 C213.37640625 124.24589844 213.7528125 123.49179687 214.140625 122.71484375 C216.5234296 115.18734739 216.29076612 103.53950367 213.2265625 96.1796875 C207.00705223 85.12718199 199.86618492 78.38491112 188 74 C173.40262964 71.24577918 160.36007501 74.07938357 149.9609375 85.17578125 Z " fill="#45C4D4" transform="translate(682,315)"/>
<path d="M0 0 C4.53897705 -0.02465392 9.07791543 -0.04283789 13.61694336 -0.05493164 C15.16219766 -0.0599714 16.70744716 -0.0668032 18.25268555 -0.07543945 C20.46925029 -0.08752076 22.68575218 -0.09323173 24.90234375 -0.09765625 C25.5971434 -0.10281754 26.29194305 -0.10797882 27.00779724 -0.11329651 C28.6722933 -0.11349277 30.33665499 -0.06189129 32 0 C33 1 33 1 33.09765625 4.81640625 C33.09098089 6.39846682 33.07901875 7.98051159 33.0625 9.5625 C33.05798828 10.36880859 33.05347656 11.17511719 33.04882812 12.00585938 C33.03700518 14.00393756 33.01906914 16.00197783 33 18 C34.82337891 17.98259766 34.82337891 17.98259766 36.68359375 17.96484375 C38.26822764 17.95546722 39.85286318 17.94636687 41.4375 17.9375 C42.23994141 17.92912109 43.04238281 17.92074219 43.86914062 17.91210938 C45.91295221 17.9034857 47.95683902 17.9477185 50 18 C52.07189132 20.07189132 51.18832241 24.48454017 51.203125 27.33984375 C51.20882507 28.17713516 51.21452515 29.01442657 51.22039795 29.87709045 C51.22986154 31.65168997 51.23638731 33.42630716 51.24023438 35.20092773 C51.24994709 37.92267323 51.28095987 40.6436661 51.3125 43.36523438 C51.31902899 45.085933 51.32427987 46.80663704 51.328125 48.52734375 C51.3404718 49.34508774 51.3528186 50.16283173 51.36553955 51.00535583 C51.35644531 53.30053711 51.35644531 53.30053711 51 57 C47.81740777 59.12172816 47.02323176 59.2517325 43.37670898 59.25878906 C42.44241562 59.26509338 41.50812225 59.27139771 40.54551697 59.27789307 C39.53920731 59.2738446 38.53289764 59.26979614 37.49609375 59.265625 C36.46186783 59.26753845 35.42764191 59.2694519 34.36207581 59.27142334 C32.17570757 59.27278455 29.98933123 59.26909256 27.80297852 59.26074219 C24.44724484 59.2500311 21.09204522 59.26064538 17.73632812 59.2734375 C15.61458215 59.27211611 13.4928365 59.26955413 11.37109375 59.265625 C10.36275986 59.26967346 9.35442596 59.27372192 8.3155365 59.27789307 C7.38439529 59.27158875 6.45325409 59.26528442 5.49389648 59.25878906 C4.67243637 59.25719788 3.85097626 59.25560669 3.00462341 59.25396729 C1 59 1 59 -1 57 C-1.24723816 54.68493652 -1.24723816 54.68493652 -1.24291992 51.75585938 C-1.24599655 50.66132446 -1.24907318 49.56678955 -1.25224304 48.43908691 C-1.24505753 47.25262573 -1.23787201 46.06616455 -1.23046875 44.84375 C-1.23001053 43.63054077 -1.22955231 42.41733154 -1.2290802 41.1673584 C-1.22605474 38.59837874 -1.21815973 36.02940097 -1.20581055 33.46044922 C-1.18757645 29.51653583 -1.18530066 25.57285734 -1.18554688 21.62890625 C-1.18063102 19.13801879 -1.17480241 16.64713293 -1.16796875 14.15625 C-1.16685593 12.96978882 -1.1657431 11.78332764 -1.16459656 10.56091309 C-1.15821671 9.46637817 -1.15183685 8.37184326 -1.14526367 7.24414062 C-1.13954597 5.79424744 -1.13954597 5.79424744 -1.13371277 4.31506348 C-1 2 -1 2 0 0 Z " fill="#363A41" transform="translate(60,164)"/>
<path d="M0 0 C8.6119885 7.66820894 17.25792522 20.11071771 18.14355469 31.91308594 C18.90023007 48.34268113 15.21320062 62.19368574 4.3125 74.9375 C-2.65129588 82.12354469 -12.00012139 88.16114316 -22 90 C-24.31 90 -26.62 90 -29 90 C-29 127.95 -29 165.9 -29 205 C-31.64 204.34 -34.28 203.68 -37 203 C-37 165.71 -37 128.42 -37 90 C-39.31 90 -41.62 90 -44 90 C-59.11390537 85.96590718 -69.69770307 77.25411044 -77.75 64.125 C-84.1724803 52.53567038 -85.87928798 40.66490963 -83.34375 27.625 C-81.14009287 20.33013501 -77.42985761 14.15691663 -73 8 C-72.53851562 7.34128906 -72.07703125 6.68257812 -71.6015625 6.00390625 C-67.43046561 0.59112445 -61.84528475 -2.61079122 -56 -6 C-55.01 -6.598125 -54.02 -7.19625 -53 -7.8125 C-35.00430595 -14.93579556 -15.38903576 -11.14378451 0 0 Z M-66.25 9.0625 C-75.63658427 20.26833978 -78.99589688 32.64801938 -78 47 C-77.43252118 50.28464434 -76.45454089 53.00920245 -75 56 C-74.56300781 56.90363281 -74.12601563 57.80726562 -73.67578125 58.73828125 C-68.45493327 68.86480791 -63.13432601 74.71980312 -53 80 C-52.28585937 80.41636719 -51.57171875 80.83273438 -50.8359375 81.26171875 C-41.64770095 85.88830429 -29.15774791 85.55098688 -19.35546875 83.08203125 C-16.40780188 81.91280267 -13.74257929 80.58714079 -11 79 C-10.2059375 78.58878906 -9.411875 78.17757812 -8.59375 77.75390625 C1.28741279 72.05193389 7.73403024 61.7310435 11 51 C11.18949219 50.40316406 11.37898437 49.80632812 11.57421875 49.19140625 C13.76533737 37.91418106 12.24281625 26.89926978 6.234375 17.12890625 C-1.21594764 6.32007203 -10.5471165 -1.67823914 -23.5625 -4.875 C-24.696875 -4.91625 -25.83125 -4.9575 -27 -5 C-27.79535156 -5.04898438 -28.59070313 -5.09796875 -29.41015625 -5.1484375 C-43.89009562 -5.69013307 -56.09424345 -1.40514159 -66.25 9.0625 Z " fill="#45C4D4" transform="translate(658,50)"/>
<path d="M0 0 C1.98 0 3.96 0 6 0 C6 0.99 6 1.98 6 3 C7.98 3 9.96 3 12 3 C12.33 2.01 12.66 1.02 13 0 C15.475 0.495 15.475 0.495 18 1 C18 1.66 18 2.32 18 3 C19.98 3 21.96 3 24 3 C24 2.34 24 1.68 24 1 C25.65 1 27.3 1 29 1 C29.495 2.485 29.495 2.485 30 4 C31.423125 3.9690625 31.423125 3.9690625 32.875 3.9375 C36 4 36 4 38 5 C38.09908569 16.30034231 38.14094402 27.58601181 37.5625 38.875 C37.52326416 39.68235596 37.48402832 40.48971191 37.44360352 41.3215332 C37.12742408 46.87257592 37.12742408 46.87257592 36 48 C33.52317476 48.10117282 31.07491486 48.13969068 28.59765625 48.1328125 C27.84592636 48.13376923 27.09419647 48.13472595 26.31968689 48.13571167 C24.71987831 48.13639415 23.12006698 48.13453516 21.52026367 48.13037109 C19.10393791 48.12509056 16.68780379 48.13027853 14.27148438 48.13671875 C-6.7058954 48.1470523 -6.7058954 48.1470523 -11 46 C-10.93129299 40.05475575 -10.84341068 34.11022632 -10.73754883 28.16552734 C-10.70424321 26.14217029 -10.676229 24.11871907 -10.65356445 22.09521484 C-10.62012165 19.19067148 -10.56781231 16.28699558 -10.51171875 13.3828125 C-10.50532883 12.47443634 -10.4989389 11.56606018 -10.49235535 10.63015747 C-10.47256119 9.78943695 -10.45276703 8.94871643 -10.43237305 8.08251953 C-10.42126999 7.34083527 -10.41016693 6.599151 -10.39872742 5.83499146 C-10 4 -10 4 -7 2 C-4.66800612 1.92094936 -2.33167378 1.91201231 0 2 C0 1.34 0 0.68 0 0 Z " fill="#D7D7D7" transform="translate(283,236)"/>
<path d="M0 0 C1.07507813 -0.00128906 2.15015625 -0.00257813 3.2578125 -0.00390625 C4.38960937 -0.00003906 5.52140625 0.00382812 6.6875 0.0078125 C7.81929687 0.00394531 8.95109375 0.00007813 10.1171875 -0.00390625 C11.19226563 -0.00261719 12.26734375 -0.00132812 13.375 0 C14.86580078 0.00169189 14.86580078 0.00169189 16.38671875 0.00341797 C18.6875 0.1328125 18.6875 0.1328125 19.6875 1.1328125 C19.82865161 3.80340101 19.72997107 6.45713488 19.6875 9.1328125 C20.28812256 9.12757568 20.88874512 9.12233887 21.50756836 9.11694336 C24.21336838 9.09623236 26.91915177 9.08317125 29.625 9.0703125 C31.04329102 9.05774414 31.04329102 9.05774414 32.49023438 9.04492188 C33.83891602 9.04008789 33.83891602 9.04008789 35.21484375 9.03515625 C36.04749756 9.02991943 36.88015137 9.02468262 37.73803711 9.01928711 C39.6875 9.1328125 39.6875 9.1328125 40.6875 10.1328125 C40.77608646 12.87175335 40.80273479 15.5853452 40.78515625 18.32421875 C40.7837413 19.14405746 40.78232635 19.96389618 40.78086853 20.80857849 C40.77525289 23.43752632 40.76269779 26.06639023 40.75 28.6953125 C40.74498701 30.47330607 40.74042376 32.25130096 40.73632812 34.02929688 C40.72527839 38.39716795 40.70800331 42.76497598 40.6875 47.1328125 C38.39547012 48.27882744 37.0929331 48.26518489 34.54492188 48.27807617 C33.26349304 48.28764595 33.26349304 48.28764595 31.95617676 48.29740906 C30.57021301 48.29907829 30.57021301 48.29907829 29.15625 48.30078125 C28.20939331 48.30410965 27.26253662 48.30743805 26.2869873 48.31086731 C24.28296394 48.31593496 22.27893211 48.31827569 20.27490234 48.31811523 C17.20005497 48.32030356 14.12556519 48.33846604 11.05078125 48.35742188 C9.10677207 48.36035539 7.16276117 48.36234047 5.21875 48.36328125 C3.83278625 48.37405952 3.83278625 48.37405952 2.41882324 48.38505554 C1.56453735 48.38197891 0.71025146 48.37890228 -0.16992188 48.37573242 C-0.92333862 48.37715744 -1.67675537 48.37858246 -2.45300293 48.38005066 C-4.3125 48.1328125 -4.3125 48.1328125 -6.3125 46.1328125 C-6.55973816 44.19065857 -6.55973816 44.19065857 -6.55541992 41.79077148 C-6.55849655 40.8932164 -6.56157318 39.99566132 -6.56474304 39.07090759 C-6.55755753 38.10004715 -6.55037201 37.12918671 -6.54296875 36.12890625 C-6.54251053 35.1352858 -6.54205231 34.14166534 -6.5415802 33.11793518 C-6.53855609 31.01554166 -6.5306651 28.91315041 -6.51831055 26.81079102 C-6.50005565 23.58016081 -6.4978008 20.34981701 -6.49804688 17.11914062 C-6.4931318 15.08072667 -6.48730353 13.04231467 -6.48046875 11.00390625 C-6.47935593 10.03102158 -6.4782431 9.0581369 -6.47709656 8.05577087 C-6.47071671 7.16136795 -6.46433685 6.26696503 -6.45776367 5.34545898 C-6.45395187 4.55429184 -6.45014008 3.76312469 -6.44621277 2.94798279 C-6.15833259 -0.96003248 -3.27231158 0.00371371 0 0 Z " fill="#D7D7D7" transform="translate(751.3125,343.8671875)"/>
<path d="M0 0 C2.47442734 1.46632731 2.86515773 3.32738762 3.6875 6 C5.3375 6 6.9875 6 8.6875 6 C9.3475 4.02 10.0075 2.04 10.6875 0 C14.81501449 0.60698743 18.0196148 2.03810791 21.6875 4 C21.3575 6.64 21.0275 9.28 20.6875 12 C23.3275 12 25.9675 12 28.6875 12 C31.76442308 18.4 31.76442308 18.4 31.375 21.4375 C31.148125 21.953125 30.92125 22.46875 30.6875 23 C29.3675 23.33 28.0475 23.66 26.6875 24 C26.6875 25.98 26.6875 27.96 26.6875 30 C29.1625 30.99 29.1625 30.99 31.6875 32 C30.5780928 35.48670834 29.42412334 38.77484237 27.6875 42 C25.3775 41.67 23.0675 41.34 20.6875 41 C20.6875 43.64 20.6875 46.28 20.6875 49 C14.37068756 52.03692906 14.37068756 52.03692906 11.375 51.875 C9.6875 51 9.6875 51 7.6875 48 C5.25032742 48.27034634 5.25032742 48.27034634 2.6875 49 C2.0275 49.99 1.3675 50.98 0.6875 52 C-3.25479943 51.43681437 -6.25499087 50.62072211 -9.3125 48 C-9.625 44.3125 -9.625 44.3125 -9.3125 41 C-11.9525 41 -14.5925 41 -17.3125 41 C-18.6325 37.7 -19.9525 34.4 -21.3125 31 C-19.3325 30.34 -17.3525 29.68 -15.3125 29 C-15.50078772 26.55519921 -15.50078772 26.55519921 -16.3125 24 C-18.30636866 22.81531734 -18.30636866 22.81531734 -20.3125 22 C-19.83519162 20.5410574 -19.35558958 19.08286504 -18.875 17.625 C-18.60816406 16.81289063 -18.34132813 16.00078125 -18.06640625 15.1640625 C-17.3125 13 -17.3125 13 -16.3125 11 C-15.343125 11.185625 -14.37375 11.37125 -13.375 11.5625 C-12.364375 11.706875 -11.35375 11.85125 -10.3125 12 C-9.10688816 11.01732141 -9.10688816 11.01732141 -9.21484375 9.15234375 C-9.22644531 8.42144531 -9.23804688 7.69054687 -9.25 6.9375 C-9.270625 5.638125 -9.29125 4.33875 -9.3125 3 C-3.0725 0 -3.0725 0 0 0 Z " fill="#3A3F46" transform="translate(544.3125,299)"/>
<path d="M0 0 C0.85787467 4.64415926 1.71228051 9.28893819 2.56347656 13.93432617 C2.85353849 15.51457965 3.14454793 17.09465951 3.43652344 18.67456055 C3.85600965 20.94535069 4.27208564 23.21674315 4.6875 25.48828125 C4.81874268 26.19463211 4.94998535 26.90098297 5.08520508 27.6287384 C5.60180013 30.46903673 6 33.10569901 6 36 C4.99735107 36.17128418 3.99470215 36.34256836 2.96166992 36.51904297 C-0.80877538 37.16331423 -4.5790886 37.80835575 -8.34936523 38.45361328 C-9.97172592 38.73116255 -11.59412092 39.00851136 -13.21655273 39.28564453 C-15.56763934 39.68727943 -17.91859842 40.08965354 -20.26953125 40.4921875 C-21.41411301 40.68757111 -21.41411301 40.68757111 -22.58181763 40.88690186 C-27.64812885 41.75554593 -32.7014119 42.67842248 -37.74487305 43.67236328 C-40.19082978 44.02772476 -42.53175411 44.05622677 -45 44 C-45.29003906 42.13408203 -45.29003906 42.13408203 -45.5859375 40.23046875 C-45.84865239 38.54943133 -46.11169485 36.86844507 -46.375 35.1875 C-46.57863159 33.88594971 -46.57863159 33.88594971 -46.78637695 32.55810547 C-47.64856133 27.09335555 -48.581141 21.65186524 -49.66796875 16.2265625 C-50.03138386 13.78954355 -50.02163037 11.4607731 -50 9 C-43.72428445 7.79126629 -37.44830415 6.58392953 -31.171875 5.37890625 C-26.68133148 4.51659173 -22.19173741 3.64965086 -17.703125 2.77734375 C-15.82292544 2.4140171 -13.94271759 2.05073335 -12.0625 1.6875 C-11.18827393 1.51637695 -10.31404785 1.34525391 -9.41333008 1.16894531 C-8.20519653 0.93643066 -8.20519653 0.93643066 -6.97265625 0.69921875 C-6.27406494 0.56346436 -5.57547363 0.42770996 -4.85571289 0.2878418 C-3 0 -3 0 0 0 Z " fill="#FEFEFE" transform="translate(429,158)"/>
<path d="M0 0 C4.68951771 2.64222826 8.09509691 5.89097666 9.65625 11.1171875 C9.48059193 12.78697245 9.27455594 14.45369751 9.046875 16.1171875 C8.98565878 20.72753404 9.97471412 23.13183065 13.08178711 26.56613159 C15.61548084 29.12689967 18.24073962 31.56986038 20.90625 33.9921875 C22.51107684 35.50181684 24.10815004 37.01931817 25.70452881 38.53787231 C27.15463207 39.90897634 28.62226499 41.26147103 30.09082031 42.61279297 C36.49965889 48.86915632 36.49965889 48.86915632 37.046875 53.23046875 C37.00046875 54.28621094 36.9540625 55.34195313 36.90625 56.4296875 C36.87015625 57.49832031 36.8340625 58.56695312 36.796875 59.66796875 C36.75046875 60.47621094 36.7040625 61.28445312 36.65625 62.1171875 C34.88617286 62.19832856 33.11502902 62.25644255 31.34375 62.3046875 C30.35761719 62.33949219 29.37148438 62.37429687 28.35546875 62.41015625 C25.17539099 62.06499586 24.76141726 61.35964828 22.65625 59.1171875 C20.38463745 58.54394943 20.38463745 58.54394943 17.96875 58.4296875 C17.16050781 58.36394531 16.35226562 58.29820312 15.51953125 58.23046875 C14.90464844 58.19308594 14.28976562 58.15570313 13.65625 58.1171875 C13.65625 55.4771875 13.65625 52.8371875 13.65625 50.1171875 C11.01625 50.1171875 8.37625 50.1171875 5.65625 50.1171875 C5.65625 47.4771875 5.65625 44.8371875 5.65625 42.1171875 C3.01625 42.1171875 0.37625 42.1171875 -2.34375 42.1171875 C-2.34375 39.4771875 -2.34375 36.8371875 -2.34375 34.1171875 C-3.045 34.17519531 -3.74625 34.23320312 -4.46875 34.29296875 C-10.49763814 34.57966859 -14.74513481 34.29280937 -19.68359375 30.65234375 C-24.14003721 26.53144427 -25.57936687 22.73959782 -25.90625 16.6796875 C-25.67474319 11.061789 -24.16113041 7.24539786 -20.34375 3.1171875 C-14.80128881 -1.96460159 -6.91926319 -2.6062558 0 0 Z " fill="#D6D6D6" transform="translate(494.34375,124.8828125)"/>
<path d="M0 0 C1 1 1 1 1.3125 4.75 C1.16476262 14.0131339 -1.65791507 22.54361105 -8.0234375 29.31640625 C-10 31 -10 31 -13.20703125 32.75390625 C-16.37050378 34.77357856 -16.37050378 34.77357856 -16.48828125 38.4609375 C-16.43027344 39.75257813 -16.37226562 41.04421875 -16.3125 42.375 C-16.31851173 46.23082902 -16.32544053 49.16182398 -18.8359375 52.28125 C-22.82394033 54.98408248 -27.10293648 57.1138852 -32 57 C-34.4375 56.125 -34.4375 56.125 -36 54 C-35.78260624 52.615545 -35.50262242 51.2405305 -35.1875 49.875 C-34.63044454 46.48810281 -34.78915436 45.33735302 -36.640625 42.375 C-40.68557494 37.75180366 -40.68557494 37.75180366 -46.2421875 35.80078125 C-48.16931284 36.16075372 -50.08546665 36.57815367 -52 37 C-54.5625 35.375 -54.5625 35.375 -56 33 C-55.31322769 27.25432741 -53.30206776 21.95284983 -49 18 C-45.83170473 17.52204003 -42.86878094 17.47724453 -39.67236328 17.53881836 C-36.06136661 17.48961376 -34.27997965 17.22085876 -31.41015625 14.95703125 C-29.96892247 13.1926275 -28.55966351 11.40162123 -27.18359375 9.5859375 C-20.17923221 1.29096909 -10.27744971 -0.34838813 0 0 Z " fill="#040404" transform="translate(861,143)"/>
<path d="M0 0 C5 2 5 2 6 4 C6.59255095 10.51005301 4.4646165 14.59597164 1.3125 20.01367188 C-0.69560276 23.48708823 -0.69560276 23.48708823 -0.33984375 27.3203125 C1.5828098 29.7306362 3.16160837 30.73178246 6 32 C7.49745978 32.13588564 8.99825722 32.2375378 10.5 32.3125 C13.15336111 32.51592435 14.55986435 32.64913715 16.65625 34.3203125 C20.67353476 39.155068 21.36167982 42.47175678 21.2734375 48.578125 C21 51 21 51 19.4375 53.625 C16.02395694 55.55058839 13.86308787 55.54218777 10 55 C4.89283166 51.9821278 2.95697644 47.87092931 1.125 42.375 C-0.6001412 38.73303525 -3.4475842 36.7762079 -7 35 C-8.81099823 40.19152826 -10.07566616 44.41101073 -9.8125 49.9375 C-9.74691798 54.27411086 -11.20983354 56.65180024 -14 60 C-17.49565336 62.33043558 -18.8865729 62.58763244 -23 62 C-27.63729813 57.23736949 -28.29278815 53.89937224 -28.21875 47.4765625 C-27.84420308 43.23615629 -26.13963981 41.02935209 -23.0625 38.25 C-21 37 -21 37 -18.875 36.625 C-16.74216984 36.14633604 -16.74216984 36.14633604 -15.6875 33.6875 C-14.92792386 30.71824782 -14.83652793 29.79027372 -16 27 C-18.45851589 24.65391533 -18.45851589 24.65391533 -21.4375 22.4375 C-26.81165919 18.28251121 -26.81165919 18.28251121 -29 15 C-29.3125 11.5 -29.3125 11.5 -29 8 C-27.48046875 6.28125 -27.48046875 6.28125 -26 5 C-25.34773438 5.59167969 -24.69546875 6.18335938 -24.0234375 6.79296875 C-23.14945312 7.58316406 -22.27546875 8.37335938 -21.375 9.1875 C-20.51648438 9.96480469 -19.65796875 10.74210937 -18.7734375 11.54296875 C-15.90055279 14.08810183 -12.94852584 16.54289513 -10 19 C-6.7 12.73 -3.4 6.46 0 0 Z " fill="#D7D7D7" transform="translate(446,262)"/>
<path d="M0 0 C2.69082872 0.17635452 5.32851446 0.61835921 8 1 C7.67 3.64 7.34 6.28 7 9 C9.41429769 9.84080019 11.83103993 10.67281402 14.25 11.5 C14.93191406 11.73847656 15.61382812 11.97695312 16.31640625 12.22265625 C19.76413003 13.39421287 22.31702904 14 26 14 C26.66 12.02 27.32 10.04 28 8 C32.75 8.875 32.75 8.875 35 10 C34.48002061 17.28899676 32.33463691 24.0097285 30.13427734 30.9387207 C29.49449819 32.9548377 28.86564424 34.97412943 28.23828125 36.99414062 C25.15023992 46.84976008 25.15023992 46.84976008 24 48 C16.27138692 47.6059292 9.38245907 45.46842023 2.0625 43.0625 C0.92748047 42.70220703 -0.20753906 42.34191406 -1.37695312 41.97070312 C-9.73584243 39.26415757 -9.73584243 39.26415757 -12 37 C-10.75546476 29.087723 -7.99415738 21.5689983 -5.4375 14 C-5.02564453 12.76121094 -4.61378906 11.52242187 -4.18945312 10.24609375 C-1.13362536 1.13362536 -1.13362536 1.13362536 0 0 Z " fill="#D7D7D7" transform="translate(496,212)"/>
<path d="M0 0 C3.55392566 1.93782473 5.76262656 4.64393985 8 8 C8.65980684 12.03523973 9.00615843 16.25550949 6.9140625 19.8828125 C5.67170742 21.31187991 4.33896972 22.66103028 3 24 C2.67 24.99 2.34 25.98 2 27 C2.66386719 27.17015625 3.32773437 27.3403125 4.01171875 27.515625 C10.39117465 29.26648297 14.63263283 30.97956603 18.8125 36.3125 C20.31143246 39.70482082 20.28226699 42.33052916 20 46 C18.42699672 47.57300328 16.86315955 47.12725504 14.6796875 47.12939453 C13.76203613 47.13254669 12.84438477 47.13569885 11.89892578 47.13894653 C10.90103027 47.1369223 9.90313477 47.13489807 8.875 47.1328125 C7.85776855 47.13376923 6.84053711 47.13472595 5.79248047 47.13571167 C3.63704364 47.13639361 1.48160478 47.13453835 -0.67382812 47.13037109 C-3.98572371 47.12502305 -7.29748367 47.13031563 -10.609375 47.13671875 C-12.69791697 47.13605797 -14.78645885 47.13477681 -16.875 47.1328125 C-18.37184326 47.13584885 -18.37184326 47.13584885 -19.89892578 47.13894653 C-20.81657715 47.13579437 -21.73422852 47.13264221 -22.6796875 47.12939453 C-23.49163574 47.12859894 -24.30358398 47.12780334 -25.14013672 47.12698364 C-27 47 -27 47 -28 46 C-28.56806137 41.95256276 -28.77766972 39.41485717 -26.7890625 35.796875 C-22.4090461 30.24474153 -17.84342023 28.32186789 -11 27 C-12.02863107 24.78448692 -13.00825786 22.99024439 -14.59375 21.1171875 C-17.36292727 16.94803727 -16.70317703 11.78799635 -16 7 C-12.54544545 0.18045342 -7.10365416 -1.08644122 0 0 Z " fill="#D6D6D6" transform="translate(731,87)"/>
<path d="M0 0 C0.84375 1.86669922 0.84375 1.86669922 1.5 4.3046875 C1.7460498 5.19349609 1.99209961 6.08230469 2.24560547 6.99804688 C2.49455566 7.94744141 2.74350586 8.89683594 3 9.875 C3.26055176 10.83212891 3.52110352 11.78925781 3.78955078 12.77539062 C4.30376869 14.66760962 4.81317196 16.56114462 5.31738281 18.45605469 C6.34023115 22.2679573 7.45545611 26.05329694 8.5546875 29.84375 C9.0568411 32.27523058 9.07846784 34.52390367 9 37 C1.89146377 40.32739994 -5.07013052 42.40665997 -13 42 C-13.99 36.555 -13.99 36.555 -15 31 C-16.4025 31.515625 -17.805 32.03125 -19.25 32.5625 C-22.70992531 33.83453136 -24.4850392 34.01492872 -28 33 C-29.03677778 29.4210842 -30.05160999 25.83630603 -31.0625 22.25 C-31.35705078 21.23421875 -31.65160156 20.2184375 -31.95507812 19.171875 C-32.22900391 18.1921875 -32.50292969 17.2125 -32.78515625 16.203125 C-33.04176025 15.30239258 -33.29836426 14.40166016 -33.56274414 13.47363281 C-34.01446915 10.91814548 -33.83537352 9.42927612 -33 7 C-29.6888043 6.03712186 -26.37581696 5.08055083 -23.0625 4.125 C-22.13630859 3.85558594 -21.21011719 3.58617187 -20.25585938 3.30859375 C-15.85501715 2.04238651 -11.44828558 0.81576567 -6.99609375 -0.2578125 C-6.29540771 -0.42684082 -5.59472168 -0.59586914 -4.87280273 -0.77001953 C-3 -1 -3 -1 0 0 Z " fill="#D7D7D7" transform="translate(264,139)"/>
<path d="M0 0 C0.91765137 -0.00315216 1.83530273 -0.00630432 2.78076172 -0.009552 C4.27760498 -0.00651566 4.27760498 -0.00651566 5.8046875 -0.00341797 C6.82191895 -0.00437469 7.83915039 -0.00533142 8.88720703 -0.00631714 C11.04264386 -0.00699908 13.19808272 -0.00514382 15.35351562 -0.00097656 C18.66541121 0.00437148 21.97717117 -0.0009211 25.2890625 -0.00732422 C27.37760447 -0.00666344 29.46614635 -0.00538228 31.5546875 -0.00341797 C32.55258301 -0.0054422 33.55047852 -0.00746643 34.57861328 -0.009552 C35.49626465 -0.00639984 36.41391602 -0.00324768 37.359375 0 C38.17132324 0.00079559 38.98327148 0.00159119 39.81982422 0.00241089 C41.6796875 0.12939453 41.6796875 0.12939453 42.6796875 1.12939453 C42.76669092 2.76412335 42.78669813 4.40253508 42.77734375 6.03955078 C42.77412109 7.02890625 42.77089844 8.01826172 42.76757812 9.03759766 C42.75500977 10.59897461 42.75500977 10.59897461 42.7421875 12.19189453 C42.73767578 13.23667969 42.73316406 14.28146484 42.72851562 15.35791016 C42.71668663 17.94846113 42.70020439 20.53890012 42.6796875 23.12939453 C40.33547517 24.30150069 38.94936515 24.25616537 36.33764648 24.25878906 C35.4400914 24.26194122 34.54253632 24.26509338 33.61778259 24.26834106 C32.16149193 24.26530472 32.16149193 24.26530472 30.67578125 24.26220703 C29.6821608 24.26316376 28.68854034 24.26412048 27.66481018 24.2651062 C25.56242815 24.2657874 23.46004402 24.26393733 21.35766602 24.25976562 C18.12706822 24.25441091 14.89660911 24.25971558 11.66601562 24.26611328 C9.62760386 24.2654526 7.58919218 24.26417165 5.55078125 24.26220703 C4.57789658 24.26423126 3.6050119 24.26625549 2.60264587 24.26834106 C1.70824295 24.2651889 0.81384003 24.26203674 -0.10766602 24.25878906 C-0.89883316 24.25799347 -1.69000031 24.25719788 -2.50514221 24.25637817 C-4.3203125 24.12939453 -4.3203125 24.12939453 -5.3203125 23.12939453 C-5.4194782 21.50681909 -5.45111027 19.87999622 -5.453125 18.25439453 C-5.45441406 17.26955078 -5.45570313 16.28470703 -5.45703125 15.27001953 C-5.45316406 14.23361328 -5.44929687 13.19720703 -5.4453125 12.12939453 C-5.45111328 10.57478516 -5.45111328 10.57478516 -5.45703125 8.98876953 C-5.45574219 8.00392578 -5.45445312 7.01908203 -5.453125 6.00439453 C-5.45199707 5.09431641 -5.45086914 4.18423828 -5.44970703 3.24658203 C-5.21478547 -0.5972666 -3.38694815 0.00331873 0 0 Z " fill="#D6D6D6" transform="translate(714.3203125,202.87060546875)"/>
<path d="M0 0 C1.98 0 3.96 0 6 0 C6.33 0.99 6.66 1.98 7 3 C10.26202163 4.30480865 13.57956185 5.21066812 17 6 C18.19287411 9.87684087 19 12.91621923 19 17 C19.99 17 20.98 17 22 17 C22 18.65 22 20.3 22 22 C21.01 22 20.02 22 19 22 C18.96132813 23.03060547 18.96132813 23.03060547 18.921875 24.08203125 C18.83679688 25.43361328 18.83679688 25.43361328 18.75 26.8125 C18.70359375 27.70582031 18.6571875 28.59914063 18.609375 29.51953125 C18 32 18 32 16.203125 33.82421875 C14 35 14 35 10 35 C8.65835921 35.2981424 7.32148827 35.62243192 6 36 C6 36.99 6 37.98 6 39 C4.35 39 2.7 39 1 39 C0.67 38.01 0.34 37.02 0 36 C-3.87862084 34.60955102 -6.86462003 34 -11 34 C-11.335939 32.5422647 -11.66866624 31.08378894 -12 29.625 C-12.185625 28.81289063 -12.37125 28.00078125 -12.5625 27.1640625 C-13 25 -13 25 -13 23 C-14.32 23 -15.64 23 -17 23 C-17 21.35 -17 19.7 -17 18 C-16.01 17.67 -15.02 17.34 -14 17 C-13.19245122 14.9633602 -13.19245122 14.9633602 -12.8125 12.5625 C-12.65394531 11.75941406 -12.49539063 10.95632813 -12.33203125 10.12890625 C-11.94863322 8.02975544 -11.94863322 8.02975544 -12 6 C-8.46588679 3.87953208 -5.05606165 3.46800711 -1 3 C-0.67 2.01 -0.34 1.02 0 0 Z " fill="#FFA837" transform="translate(631,316)"/>
<path d="M0 0 C3.38031589 1.18767855 3.93216817 1.89825225 6 5 C6.55544077 9.28482877 6.46371025 11.29695542 4.0625 14.9375 C-0.00048153 17.67379368 -3.22764809 17.65631559 -8 17 C-8.66 16.67 -9.32 16.34 -10 16 C-12.03692527 16.89983488 -14.03247339 17.8946163 -16 18.9375 C-21.80410023 22 -21.80410023 22 -24 22 C-24 22.99 -24 23.98 -24 25 C-23.195625 25.2475 -22.39125 25.495 -21.5625 25.75 C-17.88958643 27.0387416 -14.45670815 28.6067204 -10.953125 30.29296875 C-10.30859375 30.52628906 -9.6640625 30.75960937 -9 31 C-8.34 30.67 -7.68 30.34 -7 30 C0.56097561 29.5799458 0.56097561 29.5799458 4 32 C6.50031654 35.75047482 6.53603554 37.55856266 6 42 C4.00475077 44.93052231 2.57163515 46.64521503 -0.97265625 47.4453125 C-4.37756097 47.63624174 -6.5979553 47.2680298 -9.4375 45.375 C-11.28765829 42.5627594 -11.69750921 40.32739873 -12 37 C-12.804375 36.7525 -13.60875 36.505 -14.4375 36.25 C-18.11041357 34.9612584 -21.54329185 33.3932796 -25.046875 31.70703125 C-25.69140625 31.47371094 -26.3359375 31.24039063 -27 31 C-27.66 31.33 -28.32 31.66 -29 32 C-36.10601719 32.5730659 -36.10601719 32.5730659 -39.4375 30.4375 C-41.5665223 27.11622522 -42.06817573 24.95419205 -42 21 C-40 17.5625 -40 17.5625 -37 15 C-33.54298479 14.5678731 -30.99989668 14.70738809 -27.6640625 15.68359375 C-22.25194523 16.32638187 -17.35300837 12.95903189 -13 10 C-11.28874267 7.630183 -10.81260711 5.87121177 -10 3 C-7.46154833 -0.93460009 -4.39501177 -0.38552735 0 0 Z " fill="#393E45" transform="translate(338,78)"/>
<path d="M0 0 C8.02616194 0.40621064 15.32721195 1.59847776 23 4 C24.2769545 7.63940216 23.72337064 10.2261944 22.85546875 13.9375 C22.59056641 15.07960938 22.32566406 16.22171875 22.05273438 17.3984375 C21.76720703 18.58695312 21.48167969 19.77546875 21.1875 21 C20.91357422 22.18851562 20.63964844 23.37703125 20.35742188 24.6015625 C18.09184177 34.22891966 18.09184177 34.22891966 16 38 C8.1177798 37.48400816 0.65541695 35.9078547 -7 34 C-4.75010799 22.64775303 -2.47097281 11.30657257 0 0 Z " fill="#D6D6D6" transform="translate(719,257)"/>
<path d="M0 0 C3.24799231 -0.26059473 5.72481863 -0.41234607 8.859375 0.48046875 C11.872951 3.41733555 13.67335275 6.44554768 14.859375 10.48046875 C14.6796875 12.68359375 14.6796875 12.68359375 13.859375 14.48046875 C10.63563823 16.6296266 9.59233826 16.86333678 5.859375 16.48046875 C5.199375 15.82046875 4.539375 15.16046875 3.859375 14.48046875 C3.34375 14.99609375 2.828125 15.51171875 2.296875 16.04296875 C-1.13881983 18.06914775 -3.33865431 17.32535113 -7.140625 16.48046875 C-7.800625 16.15046875 -8.460625 15.82046875 -9.140625 15.48046875 C-9.140625 16.14046875 -9.140625 16.80046875 -9.140625 17.48046875 C-12.10453338 18.96242294 -14.86506478 18.53793472 -18.140625 18.48046875 C-21.32552507 18.20311865 -21.32552507 18.20311865 -24.140625 20.48046875 C-27.46302824 20.15633185 -28.74838803 19.87270572 -31.140625 17.48046875 C-30.8541032 12.60959808 -29.78046234 6.12030609 -26.140625 2.48046875 C-24.66303478 2.2526143 -23.17596295 2.08555712 -21.6875 1.9453125 C-20.76388672 1.85733398 -19.84027344 1.76935547 -18.88867188 1.67871094 C-14.88517111 1.33052374 -10.88016676 1.00821941 -6.87304688 0.70458984 C-4.57283799 0.5159201 -2.2912106 0.27273548 0 0 Z " fill="#D6D6D6" transform="translate(428.140625,420.51953125)"/>
<path d="M0 0 C2.97 0.495 2.97 0.495 6 1 C6.33 2.32 6.66 3.64 7 5 C7.763125 4.896875 8.52625 4.79375 9.3125 4.6875 C12 5 12 5 13.9375 7.1875 C15 10 15 10 14.1875 12.8125 C13.795625 13.534375 13.40375 14.25625 13 15 C13.99 15 14.98 15 16 15 C15.67 16.98 15.34 18.96 15 21 C13.68 21 12.36 21 11 21 C11 22.98 11 24.96 11 27 C6.56923077 29.09230769 6.56923077 29.09230769 3.6875 28.625 C3.130625 28.41875 2.57375 28.2125 2 28 C1.67 28.99 1.34 29.98 1 31 C-0.98 30.67 -2.96 30.34 -5 30 C-5.33 28.68 -5.66 27.36 -6 26 C-7.65 26 -9.3 26 -11 26 C-11.99 24.02 -12.98 22.04 -14 20 C-13.01 19.67 -12.02 19.34 -11 19 C-11.495 18.62875 -11.99 18.2575 -12.5 17.875 C-14.59755514 15.25305607 -14.21743835 13.26157528 -14 10 C-12.68 9.67 -11.36 9.34 -10 9 C-10 7.35 -10 5.7 -10 4 C-7.75 2.875 -7.75 2.875 -5 2 C-2.6875 2.875 -2.6875 2.875 -1 4 C-0.67 2.68 -0.34 1.36 0 0 Z " fill="#929FA9" transform="translate(617,288)"/>
<path d="M0 0 C2 1 2 1 2.8515625 3.06640625 C3.10679687 3.89011719 3.36203125 4.71382812 3.625 5.5625 C4.01558594 6.80193359 4.01558594 6.80193359 4.4140625 8.06640625 C4.60742188 8.70449219 4.80078125 9.34257812 5 10 C6.423125 9.2265625 6.423125 9.2265625 7.875 8.4375 C8.90625 7.963125 9.9375 7.48875 11 7 C11.66 7.33 12.32 7.66 13 8 C12.01 10.31 11.02 12.62 10 15 C14.95 16.485 14.95 16.485 20 18 C20 18.66 20 19.32 20 20 C16.7 21.65 13.4 23.3 10 25 C10.66 26.98 11.32 28.96 12 31 C10.02 30.34 8.04 29.68 6 29 C4.35 32.3 2.7 35.6 1 39 C-2.28220895 37.35889552 -2.74570789 34.30677012 -4 31 C-4 30.01 -4 29.02 -4 28 C-5.423125 28.7734375 -5.423125 28.7734375 -6.875 29.5625 C-7.90625 30.036875 -8.9375 30.51125 -10 31 C-10.66 30.67 -11.32 30.34 -12 30 C-11.34 28.02 -10.68 26.04 -10 24 C-14.455 22.02 -14.455 22.02 -19 20 C-19 19.34 -19 18.68 -19 18 C-12.375 15 -12.375 15 -9 15 C-9.99 12.36 -10.98 9.72 -12 7 C-6.25 8.875 -6.25 8.875 -4 10 C-3.79503906 9.36191406 -3.59007812 8.72382813 -3.37890625 8.06640625 C-3.10949219 7.24011719 -2.84007812 6.41382813 -2.5625 5.5625 C-2.29566406 4.73878906 -2.02882812 3.91507813 -1.75390625 3.06640625 C-1 1 -1 1 0 0 Z " fill="#D7D7D7" transform="translate(211,210)"/>
<path d="M0 0 C6.94370924 0.56683341 13.67973776 1.59102367 20.5 3 C21.39203125 3.17789062 22.2840625 3.35578125 23.203125 3.5390625 C29.72735969 4.86367985 29.72735969 4.86367985 32 6 C31.39644592 9.85025879 30.23227397 12.86101159 28.4375 16.3125 C27.98246094 17.19550781 27.52742187 18.07851563 27.05859375 18.98828125 C26.70925781 19.65214844 26.35992188 20.31601562 26 21 C18.55769906 20.45298368 11.31839056 19.45801591 4 18 C4 19.32 4 20.64 4 22 C4.60585938 22.04898437 5.21171875 22.09796875 5.8359375 22.1484375 C10.41229787 22.55678966 14.96574593 23.06560392 19.5 23.8125 C20.72203125 24.00779297 20.72203125 24.00779297 21.96875 24.20703125 C24 25 24 25 25.28125 27.07421875 C25.5184375 27.70972656 25.755625 28.34523438 26 29 C22.68169709 30.10610097 21.31084954 29.88341529 17.9296875 29.2578125 C16.95128906 29.07863281 15.97289062 28.89945312 14.96484375 28.71484375 C13.94519531 28.52019531 12.92554688 28.32554687 11.875 28.125 C10.84761719 27.93808594 9.82023438 27.75117188 8.76171875 27.55859375 C1.13872261 26.13872261 1.13872261 26.13872261 0 25 C-0.25506224 19.9433911 0.37490861 15.48477482 1.5 10.5625 C1.7784375 9.32628906 2.056875 8.09007812 2.34375 6.81640625 C2.5603125 5.88699219 2.776875 4.95757812 3 4 C1.68 3.67 0.36 3.34 -1 3 C-0.67 2.01 -0.34 1.02 0 0 Z " fill="#D7D7D7" transform="translate(730,425)"/>
<path d="M0 0 C1.588125 0.185625 3.17625 0.37125 4.8125 0.5625 C5.3075 8.4825 5.3075 8.4825 5.8125 16.5625 C-3.75892857 18.99107143 -3.75892857 18.99107143 -8.1875 17.5625 C-8.1875 14.9225 -8.1875 12.2825 -8.1875 9.5625 C-11.8175 9.8925 -15.4475 10.2225 -19.1875 10.5625 C-19.5175 13.5325 -19.8475 16.5025 -20.1875 19.5625 C-23.4037884 20.3665721 -25.64271622 20.69818524 -28.875 20.6875 C-29.66261719 20.69007813 -30.45023437 20.69265625 -31.26171875 20.6953125 C-33.1875 20.5625 -33.1875 20.5625 -34.1875 19.5625 C-34.42403523 17.03653741 -34.60923692 14.53142793 -34.75 12 C-34.79318359 11.28908203 -34.83636719 10.57816406 -34.88085938 9.84570312 C-34.98721777 8.08488088 -35.08788846 6.3237168 -35.1875 4.5625 C-29.69564664 2.36391884 -24.33420962 1.9611231 -18.5 1.5 C-16.62082923 1.34563499 -14.74190607 1.18821679 -12.86328125 1.02734375 C-12.03739502 0.961521 -11.21150879 0.89569824 -10.3605957 0.82788086 C-1.82995336 -0.21389065 -1.82995336 -0.21389065 0 0 Z " fill="#D6D6D6" transform="translate(436.1875,441.4375)"/>
<path d="M0 0 C0 0.66 0 1.32 0 2 C0.928125 2.2475 1.85625 2.495 2.8125 2.75 C6.18995757 4.07449316 7.2906366 4.8661671 9 8 C9 8.99 9 9.98 9 11 C6.5625 10.625 6.5625 10.625 4 10 C3.67 9.34 3.34 8.68 3 8 C2.01 7.67 1.02 7.34 0 7 C0 9.97 0 12.94 0 16 C0.928125 16.0825 1.85625 16.165 2.8125 16.25 C6 17 6 17 7.875 18.6875 C9.35172371 21.72298762 9.40963944 23.65461121 9 27 C7.875 29.8125 7.875 29.8125 6 32 C2.8125 32.8125 2.8125 32.8125 0 33 C0 33.99 0 34.98 0 36 C-1.65 35.67 -3.3 35.34 -5 35 C-5 34.34 -5 33.68 -5 33 C-5.763125 32.9175 -6.52625 32.835 -7.3125 32.75 C-10 32 -10 32 -11.8125 30.125 C-13 28 -13 28 -13 25 C-11.35 25.33 -9.7 25.66 -8 26 C-8 26.66 -8 27.32 -8 28 C-6.68 28.33 -5.36 28.66 -4 29 C-4 26.03 -4 23.06 -4 20 C-5.11375 19.731875 -6.2275 19.46375 -7.375 19.1875 C-11 18 -11 18 -13 15 C-13.67394696 7.92355694 -13.67394696 7.92355694 -11.3125 4.6875 C-4.88888889 0 -4.88888889 0 0 0 Z " fill="#3D4248" transform="translate(862,408)"/>
<path d="M0 0 C0.8510582 -0.00637985 1.70211639 -0.0127597 2.57896423 -0.01933289 C3.9602224 -0.02100212 3.9602224 -0.02100212 5.36938477 -0.02270508 C6.78611229 -0.02769768 6.78611229 -0.02769768 8.23146057 -0.03279114 C10.23128776 -0.03785927 12.23112343 -0.0401995 14.23095703 -0.04003906 C17.2948191 -0.04222493 20.35832086 -0.06038015 23.42211914 -0.0793457 C25.36287311 -0.08227973 27.3036288 -0.08426446 29.24438477 -0.08520508 C30.16319931 -0.09239059 31.08201385 -0.09957611 32.02867126 -0.10697937 C33.3099868 -0.10236443 33.3099868 -0.10236443 34.6171875 -0.09765625 C35.36838364 -0.09908127 36.11957977 -0.10050629 36.89353943 -0.10197449 C38.87329102 0.14526367 38.87329102 0.14526367 41.87329102 2.14526367 C42.12329102 5.20776367 42.12329102 5.20776367 41.87329102 8.14526367 C40.87329102 9.14526367 40.87329102 9.14526367 38.96873474 9.26551819 C38.1360054 9.26329758 37.30327606 9.26107697 36.4453125 9.25878906 C35.50441269 9.25871353 34.56351288 9.258638 33.59410095 9.25856018 C32.57119461 9.2533989 31.54828827 9.24823761 30.49438477 9.24291992 C29.4525856 9.24150497 28.41078644 9.24009003 27.3374176 9.2386322 C23.99518008 9.23301447 20.65300845 9.22045897 17.31079102 9.20776367 C15.05102635 9.20275096 12.79126065 9.19818765 10.53149414 9.1940918 C4.97873711 9.18303928 -0.57398123 9.16628391 -6.12670898 9.14526367 C-6.12670898 6.50526367 -6.12670898 3.86526367 -6.12670898 1.14526367 C-3.83846973 0.00114404 -2.54329201 0.01291912 0 0 Z " fill="#D7D7D7" transform="translate(715.126708984375,187.854736328125)"/>
<path d="M0 0 C5.23274388 -0.02467917 10.46545403 -0.04285003 15.69824219 -0.05493164 C17.47917267 -0.05996711 19.260099 -0.06679581 21.04101562 -0.07543945 C23.59766665 -0.08753942 26.15426312 -0.09323609 28.7109375 -0.09765625 C29.50994476 -0.10281754 30.30895203 -0.10797882 31.13217163 -0.11329651 C36.77225659 -0.11387171 36.77225659 -0.11387171 39 1 C39 1.66 39 2.32 39 3 C36.80644768 4.87001078 34.60515924 6.63431966 32.3125 8.375 C31.05849131 9.34101287 29.80458335 10.30715651 28.55078125 11.2734375 C27.6393335 11.96324707 27.6393335 11.96324707 26.70947266 12.66699219 C25.18700077 13.85418106 23.73387398 15.12909939 22.29296875 16.4140625 C20 18 20 18 18.11352539 17.79663086 C15.5865615 16.84416659 13.95695673 15.57744089 11.890625 13.83984375 C11.13652344 13.21142578 10.38242187 12.58300781 9.60546875 11.93554688 C8.82816406 11.27619141 8.05085937 10.61683594 7.25 9.9375 C6.45722656 9.27427734 5.66445313 8.61105469 4.84765625 7.92773438 C2.89322671 6.29119398 0.94433961 4.6485032 -1 3 C-0.67 2.01 -0.34 1.02 0 0 Z " fill="#373C43" transform="translate(607,74)"/>
<path d="M0 0 C1.79296875 0.84765625 1.79296875 0.84765625 3.73046875 2.47265625 C5.72746883 4.09970109 5.72746883 4.09970109 8.29296875 3.72265625 C10.86722047 2.98825782 10.86722047 2.98825782 12.79296875 1.16015625 C14.79296875 -0.15234375 14.79296875 -0.15234375 17.04296875 0.22265625 C21.06494698 2.59927975 24.37797509 5.67840655 27.79296875 8.84765625 C27.46296875 9.83765625 27.13296875 10.82765625 26.79296875 11.84765625 C14.25296875 11.84765625 1.71296875 11.84765625 -11.20703125 11.84765625 C-11.53703125 10.52765625 -11.86703125 9.20765625 -12.20703125 7.84765625 C-10.63685932 6.47825057 -9.05037734 5.1275273 -7.45703125 3.78515625 C-6.13445313 2.65400391 -6.13445313 2.65400391 -4.78515625 1.5 C-2.20703125 -0.15234375 -2.20703125 -0.15234375 0 0 Z " fill="#383D44" transform="translate(618.20703125,92.15234375)"/>
<path d="M0 0 C0.33 2.64 0.66 5.28 1 8 C-0.98 8.99 -0.98 8.99 -3 10 C-2.47462276 15.0302076 -1.89405214 20.01885239 -1 25 C1.31 25.66 3.62 26.32 6 27 C6.33 29.31 6.66 31.62 7 34 C3.86744308 35.85633003 1.63390355 36.50007847 -2 36 C-3.73046875 34.0234375 -3.73046875 34.0234375 -5.1875 31.375 C-5.67605469 30.51648438 -6.16460938 29.65796875 -6.66796875 28.7734375 C-9.67663135 22.50906668 -10.26682009 17.46509195 -10.125 10.625 C-10.11597656 9.79355469 -10.10695313 8.96210938 -10.09765625 8.10546875 C-10.0742622 6.07018663 -10.03839725 4.03505436 -10 2 C-6.44357039 0.48179307 -3.88653827 -0.2220879 0 0 Z " fill="#D7D7D7" transform="translate(795,244)"/>
<path d="M0 0 C1.32 0 2.64 0 4 0 C4.33 0.99 4.66 1.98 5 3 C7.01508358 3.73323796 7.01508358 3.73323796 9 4 C9 3.01 9 2.02 9 1 C10.98 1 12.96 1 15 1 C15.33 1.66 15.66 2.32 16 3 C18.52733235 3.65555119 18.52733235 3.65555119 21 4 C21 3.01 21 2.02 21 1 C23.31 1 25.62 1 28 1 C28 2.32 28 3.64 28 5 C29.97536745 4.65213292 29.97536745 4.65213292 32 4 C32.33 3.34 32.66 2.68 33 2 C33.99 2 34.98 2 36 2 C36 4.97 36 7.94 36 11 C27.68737219 11.13425509 19.52662393 10.75613601 11.25 10 C10.15945313 9.90460938 9.06890625 9.80921875 7.9453125 9.7109375 C5.29642926 9.47857932 2.64805804 9.24155018 0 9 C0 6.03 0 3.06 0 0 Z " fill="#FCFCFC" transform="translate(279,244)"/>
<path d="M0 0 C1.65 0 3.3 0 5 0 C5.33 1.65 5.66 3.3 6 5 C7.65 5.33 9.3 5.66 11 6 C11.38218767 7.65614657 11.71395102 9.32457024 12 11 C11 12 11 12 8.4375 12.0625 C7.633125 12.041875 6.82875 12.02125 6 12 C6 13.65 6 15.3 6 17 C3.69 17 1.38 17 -1 17 C-1 15.35 -1 13.7 -1 12 C-2.65 11.67 -4.3 11.34 -6 11 C-6 9.35 -6 7.7 -6 6 C-4.02 6 -2.04 6 0 6 C0 4.02 0 2.04 0 0 Z " fill="#D9D9D9" transform="translate(751,99)"/>
<path d="M0 0 C0.99 0 1.98 0 3 0 C2.32841849 7.2729225 1.01921738 14.29717829 -0.5 21.4375 C-0.72558594 22.52482422 -0.95117188 23.61214844 -1.18359375 24.73242188 C-2.86624765 32.7324953 -2.86624765 32.7324953 -4 35 C-5.32 34.67 -6.64 34.34 -8 34 C-7.31036792 27.46011823 -6.0313711 21.15650488 -4.5625 14.75 C-4.34529297 13.7703125 -4.12808594 12.790625 -3.90429688 11.78125 C-3.68966797 10.83765625 -3.47503906 9.8940625 -3.25390625 8.921875 C-3.06127197 8.07206055 -2.8686377 7.22224609 -2.67016602 6.34667969 C-2.01285963 4.04502977 -1.14230665 2.09760786 0 0 Z " fill="#D9D9D9" transform="translate(714,255)"/>
<path d="M0 0 C3.37471011 1.44630433 5.78192764 3.04257018 8 6 C7.75 9.25 7.75 9.25 7 12 C3.27326672 13.3809273 0.97342883 12.59902051 -2.6875 11.25 C-4.14736328 10.73179687 -4.14736328 10.73179687 -5.63671875 10.203125 C-8 9 -8 9 -9 6 C-7.875 3.3125 -7.875 3.3125 -6 1 C-3.375 0.75 -3.375 0.75 -1 1 C-0.67 0.67 -0.34 0.34 0 0 Z " fill="#D7D7D7" transform="translate(514,211)"/>
<path d="M0 0 C1.32 0 2.64 0 4 0 C4.66 1.32 5.32 2.64 6 4 C9.01848877 3.56878732 10.91621258 3.05446182 13.5 1.375 C16 0 16 0 18.8125 0.3125 C19.8953125 0.6528125 19.8953125 0.6528125 21 1 C21 1.99 21 2.98 21 4 C18.56876731 5.36663387 16.13113837 6.7183867 13.6875 8.0625 C12.99720703 8.45244141 12.30691406 8.84238281 11.59570312 9.24414062 C9.77074312 10.24037483 7.88726123 11.12752842 6 12 C3 11 3 11 1.796875 9.2578125 C1.45140625 8.55398437 1.1059375 7.85015625 0.75 7.125 C0.39421875 6.42632812 0.0384375 5.72765625 -0.328125 5.0078125 C-1 3 -1 3 0 0 Z " fill="#FCFCFC" transform="translate(498,233)"/>
<path d="M0 0 C4.2726657 0.47474063 6.273802 2.84334968 9 6 C11.53168612 10.34003336 11.61143821 15.09963292 11 20 C9.5 23.0625 9.5 23.0625 8 25 C6.68 24.67 5.36 24.34 4 24 C4.23396484 23.15695312 4.23396484 23.15695312 4.47265625 22.296875 C5.63127649 17.25044016 6.22724942 12.22550769 3.66015625 7.5703125 C2.18507943 5.61974033 0.67298699 3.78252781 -1 2 C-0.67 1.34 -0.34 0.68 0 0 Z " fill="#D8D8D8" transform="translate(808,245)"/>
<path d="M0 0 C1.32 0.66 2.64 1.32 4 2 C3.835 2.78375 3.67 3.5675 3.5 4.375 C2.9376293 6.88208039 2.9376293 6.88208039 3 9 C3.33 9.33 3.66 9.66 4 10 C4.04080783 11.99958364 4.04254356 14.00045254 4 16 C0.7 15.67 -2.6 15.34 -6 15 C-6.33 13.35 -6.66 11.7 -7 10 C-5.35 9.01 -3.7 8.02 -2 7 C-2.33 5.35 -2.66 3.7 -3 2 C-2.01 1.34 -1.02 0.68 0 0 Z " fill="#FCFCFC" transform="translate(728,267)"/>
<path d="M0 0 C2 3 2 3 1.75 5.5625 C1 8 1 8 -1 10 C-4.5 10.25 -4.5 10.25 -8 10 C-10 8 -10 8 -10.3125 5.0625 C-10 2 -10 2 -8.9375 0.0625 C-5.78433176 -1.66665678 -3.37491745 -0.8590699 0 0 Z " fill="#FDFDFD" transform="translate(487,133)"/>
<path d="M0 0 C3.87939509 1.58620127 6.33361087 4.09920987 9.25 7.0625 C10.14203125 7.96097656 11.0340625 8.85945312 11.953125 9.78515625 C14 12 14 12 14 13 C11.85423363 13.02685938 9.70837355 13.04633088 7.5625 13.0625 C6.36753906 13.07410156 5.17257813 13.08570313 3.94140625 13.09765625 C1 13 1 13 0 12 C-0.07244053 9.98035801 -0.08377188 7.95832876 -0.0625 5.9375 C-0.05347656 4.83277344 -0.04445313 3.72804687 -0.03515625 2.58984375 C-0.02355469 1.73519531 -0.01195313 0.88054687 0 0 Z " fill="#3B3F46" transform="translate(96,165)"/>
<path d="M0 0 C0 1.32 0 2.64 0 4 C-2.39256249 4.70121643 -4.78790489 5.38614901 -7.1875 6.0625 C-7.86103516 6.26166016 -8.53457031 6.46082031 -9.22851562 6.66601562 C-13.17416316 7.76309811 -16.05551294 8.21781251 -20 7 C-19.67 5.68 -19.34 4.36 -19 3 C-16.586238 2.30048937 -14.16989766 1.61516081 -11.75 0.9375 C-11.06808594 0.73833984 -10.38617188 0.53917969 -9.68359375 0.33398438 C-3.41657839 -1.40009269 -3.41657839 -1.40009269 0 0 Z " fill="#FBFBFB" transform="translate(259,148)"/>
<path d="M0 0 C0 1.65 0 3.3 0 5 C-4.4482941 6.62875999 -8.68266178 7.50525722 -13.375 8.125 C-15.24285156 8.37636719 -15.24285156 8.37636719 -17.1484375 8.6328125 C-18.08945312 8.75398437 -19.03046875 8.87515625 -20 9 C-20 7.35 -20 5.7 -20 4 C-17.23010036 3.32923511 -14.45920258 2.66323683 -11.6875 2 C-10.90181641 1.80921875 -10.11613281 1.6184375 -9.30664062 1.421875 C-8.54931641 1.24140625 -7.79199219 1.0609375 -7.01171875 0.875 C-6.31522217 0.70742187 -5.61872559 0.53984375 -4.90112305 0.3671875 C-3 0 -3 0 0 0 Z " fill="#FCFCFC" transform="translate(422,206)"/>
<path d="M0 0 C0 1.32 0 2.64 0 4 C-6.36539272 6.11293829 -12.31006781 7.46048934 -19 8 C-19.33 6.68 -19.66 5.36 -20 4 C-18.58398286 3.51891725 -17.16715563 3.04021859 -15.75 2.5625 C-14.96109375 2.29566406 -14.1721875 2.02882812 -13.359375 1.75390625 C-8.72902723 0.27434148 -4.90379467 -0.09430374 0 0 Z " fill="#FCFCFC" transform="translate(261,155)"/>
<path d="M0 0 C2.4375 0.75 2.4375 0.75 4.4375 2.75 C4.8125 5.1875 4.8125 5.1875 4.4375 7.75 C2.75 9.625 2.75 9.625 0.4375 10.75 C-2.93286311 10.50925978 -4.15048021 10.16201979 -6.5625 7.75 C-6.375 4.75 -6.375 4.75 -5.5625 1.75 C-2.5625 -0.25 -2.5625 -0.25 0 0 Z " fill="#EDEDED" transform="translate(850.5625,150.25)"/>
<path d="M0 0 C1.20798319 6.28151261 1.20798319 6.28151261 0.3125 9.375 C-1 11 -1 11 -3 11.875 C-3.99 11.936875 -3.99 11.936875 -5 12 C-7 10 -7 10 -7.3125 6.5625 C-7 3 -7 3 -5.75 1.0625 C-4 0 -4 0 0 0 Z " fill="#FDFDFD" transform="translate(430,306)"/>
<path d="M0 0 C2.9375 0.25 2.9375 0.25 6 1 C8.29013653 4.4352048 8.17842973 5.985331 8 10 C5.75 10.75 5.75 10.75 3 11 C0.6875 9.4375 0.6875 9.4375 -1 7 C-1.3125 3.8125 -1.3125 3.8125 -1 1 C-0.67 0.67 -0.34 0.34 0 0 Z " fill="#FDFDFD" transform="translate(454,300)"/>
<path d="M0 0 C1.32 0 2.64 0 4 0 C4.33 1.65 4.66 3.3 5 5 C7.31 4.34 9.62 3.68 12 3 C12.33 4.32 12.66 5.64 13 7 C7.70769231 10.07692308 7.70769231 10.07692308 4.125 9.6875 C3.42375 9.460625 2.7225 9.23375 2 9 C1.34 6.03 0.68 3.06 0 0 Z " fill="#D8D8D8" transform="translate(878,292)"/>
<path d="M0 0 C0 0.99 0 1.98 0 3 C-1.98 3.99 -1.98 3.99 -4 5 C-4 7.31 -4 9.62 -4 12 C-5.32 12 -6.64 12 -8 12 C-9.60355101 8.49223216 -10.22036864 5.85645121 -10 2 C-3.375 -1.125 -3.375 -1.125 0 0 Z " fill="#D8D8D8" transform="translate(880,268)"/>
<path d="M0 0 C1.875 2.875 1.875 2.875 3 6 C2.67 6.99 2.34 7.98 2 9 C0.68 8.67 -0.64 8.34 -2 8 C-2.33 6.68 -2.66 5.36 -3 4 C-4.98 4.66 -6.96 5.32 -9 6 C-9.33 4.35 -9.66 2.7 -10 1 C-6.30503973 -0.79469499 -3.88573374 -1.63609842 0 0 Z " fill="#D9D9D9" transform="translate(902,260)"/>
<path d="M0 0 C1.65 0.33 3.3 0.66 5 1 C4.01 1.33 3.02 1.66 2 2 C1.9175 3.27875 1.835 4.5575 1.75 5.875 C0.95862921 14.04856103 -1.13094427 22.0195667 -3 30 C-3.99 30 -4.98 30 -6 30 C-5.37737723 26.68704871 -4.75145763 23.3747281 -4.125 20.0625 C-3.86396484 18.67321289 -3.86396484 18.67321289 -3.59765625 17.25585938 C-2.50272978 11.47708076 -1.30578878 5.73488315 0 0 Z " fill="#F8F8F8" transform="translate(717,255)"/>
<path d="M0 0 C1.9375 0.125 1.9375 0.125 4 1 C5.40911211 3.48272134 6 5.26875801 6 8.125 C4.41404422 11.09866709 2.04307554 11.78276978 -1 13 C-1.99 13 -2.98 13 -4 13 C-3.67 11.35 -3.34 9.7 -3 8 C-2.01 7.67 -1.02 7.34 0 7 C-0.185625 6.030625 -0.37125 5.06125 -0.5625 4.0625 C-0.706875 3.051875 -0.85125 2.04125 -1 1 C-0.67 0.67 -0.34 0.34 0 0 Z " fill="#D8D8D8" transform="translate(907,281)"/>
<path d="M0 0 C3.63 0 7.26 0 11 0 C11.33 1.65 11.66 3.3 12 5 C11 6 11 6 8.49609375 6.09765625 C6.98208984 6.08025391 6.98208984 6.08025391 5.4375 6.0625 C4.42558594 6.05347656 3.41367187 6.04445312 2.37109375 6.03515625 C1.58863281 6.02355469 0.80617188 6.01195312 0 6 C0 4.02 0 2.04 0 0 Z " fill="#FCFCFC" transform="translate(736,212)"/>
<path d="M0 0 C3.16115776 1.36983503 3.9927092 1.9890638 6 5 C6.33957563 9.07490752 6.31332486 10.53001271 4 14 C2.68 13.34 1.36 12.68 0 12 C0.04125 11.0925 0.0825 10.185 0.125 9.25 C0.00468444 6.1217954 -0.3914708 4.61385994 -2 2 C-1.34 1.34 -0.68 0.68 0 0 Z " fill="#DADADA" transform="translate(804,252)"/>
<path d="M0 0 C2.5625 0.1875 2.5625 0.1875 4.5625 2.1875 C4.00694444 6.74305556 4.00694444 6.74305556 2.5625 8.1875 C0.125 8.375 0.125 8.375 -2.4375 8.1875 C-3.0975 7.5275 -3.7575 6.8675 -4.4375 6.1875 C-3.71780303 0.28598485 -3.71780303 0.28598485 0 0 Z " fill="#FCFCFC" transform="translate(211.4375,224.8125)"/>
<path d="M0 0 C0 3.63 0 7.26 0 11 C-5.625 8.75 -5.625 8.75 -8 5 C-2.25 0 -2.25 0 0 0 Z " fill="#42474E" transform="translate(646,83)"/>
<path d="M0 0 C2.5625 0.1875 2.5625 0.1875 4.5625 2.1875 C4.1875 4.8125 4.1875 4.8125 3.5625 7.1875 C1.1875 7.8125 1.1875 7.8125 -1.4375 8.1875 C-3.4375 6.1875 -3.4375 6.1875 -3.625 3.625 C-3.37291261 0.34786389 -3.27713611 0.25208739 0 0 Z " fill="#FAFBFB" transform="translate(617.4375,299.8125)"/>
<path d="M0 0 C3.57104439 1.87949705 5.54744301 3.17053157 7 7 C2.25 11 2.25 11 0 11 C0 7.37 0 3.74 0 0 Z " fill="#3A3F46" transform="translate(606,83)"/>
<path d="M0 0 C1.0625 1.75 1.0625 1.75 2 4 C1.67 5.32 1.34 6.64 1 8 C-1.97 6.35 -4.94 4.7 -8 3 C-8 2.34 -8 1.68 -8 1 C-5.07175348 0.02391783 -3.04386724 -0.08226668 0 0 Z " fill="#D8D8D8" transform="translate(247,174)"/>
<path d="M0 0 C2.31 0 4.62 0 7 0 C7 1.98 7 3.96 7 6 C4.69 6 2.38 6 0 6 C0 4.02 0 2.04 0 0 Z " fill="#F6F6F6" transform="translate(771,368)"/>
<path d="M0 0 C2.31 0 4.62 0 7 0 C7 1.98 7 3.96 7 6 C4.69 6 2.38 6 0 6 C0 4.02 0 2.04 0 0 Z " fill="#F7F7F7" transform="translate(771,359)"/>
<path d="M0 0 C2.31 0 4.62 0 7 0 C7 1.98 7 3.96 7 6 C4.69 6 2.38 6 0 6 C0 4.02 0 2.04 0 0 Z " fill="#F7F7F7" transform="translate(750,359)"/>
<path d="M0 0 C2.31 0 4.62 0 7 0 C7 1.98 7 3.96 7 6 C4.69 6 2.38 6 0 6 C0 4.02 0 2.04 0 0 Z " fill="#F7F7F7" transform="translate(759,350)"/>
<path d="M0 0 C2.31 0 4.62 0 7 0 C7 1.98 7 3.96 7 6 C4.69 6 2.38 6 0 6 C0 4.02 0 2.04 0 0 Z " fill="#F7F7F7" transform="translate(750,350)"/>
<path d="M0 0 C2.31 0.66 4.62 1.32 7 2 C7 3.32 7 4.64 7 6 C4.35261084 7.4606285 3.10551666 8 0 8 C0 5.36 0 2.72 0 0 Z " fill="#E2E3E4" transform="translate(535,321)"/>
<path d="M0 0 C0.99 0.33 1.98 0.66 3 1 C3.625 3.375 3.625 3.375 4 6 C3.34 6.66 2.68 7.32 2 8 C-0.625 7.625 -0.625 7.625 -3 7 C-3 3 -3 3 -1.5 1.25 C-1.005 0.8375 -0.51 0.425 0 0 Z " fill="#F3F3F3" transform="translate(542,312)"/>
<path d="M0 0 C0.99 0 1.98 0 3 0 C3 2.97 3 5.94 3 9 C-1 7 -1 7 -1.875 4.5 C-1.91625 3.675 -1.9575 2.85 -2 2 C-1.34 1.34 -0.68 0.68 0 0 Z " fill="#DBDBDD" transform="translate(855,415)"/>
<path d="M0 0 C1.98 0 3.96 0 6 0 C6 1.98 6 3.96 6 6 C4.02 6 2.04 6 0 6 C0 4.02 0 2.04 0 0 Z " fill="#FBFBFB" transform="translate(305,272)"/>
<path d="M0 0 C1.98 0 3.96 0 6 0 C6 1.98 6 3.96 6 6 C4.02 6 2.04 6 0 6 C0 4.02 0 2.04 0 0 Z " fill="#FDFDFD" transform="translate(293,272)"/>
<path d="M0 0 C1.98 0 3.96 0 6 0 C6 1.98 6 3.96 6 6 C4.02 6 2.04 6 0 6 C0 4.02 0 2.04 0 0 Z " fill="#FAFAFA" transform="translate(281,271)"/>
<path d="M0 0 C1.98 0 3.96 0 6 0 C6 1.98 6 3.96 6 6 C4.02 6 2.04 6 0 6 C0 4.02 0 2.04 0 0 Z " fill="#FCFCFC" transform="translate(294,260)"/>
<path d="M0 0 C1.32 0 2.64 0 4 0 C4.33 1.98 4.66 3.96 5 6 C3.02 6 1.04 6 -1 6 C-1.33 5.01 -1.66 4.02 -2 3 C-1.34 2.01 -0.68 1.02 0 0 Z " fill="#ECECED" transform="translate(548,334)"/>
<path d="M0 0 C1.70884005 1.62339805 3.37446717 3.29319053 5 5 C5 5.66 5 6.32 5 7 C3.02 7.33 1.04 7.66 -1 8 C-1.93065133 5.39417629 -2.14917407 4.35801776 -1.0625 1.75 C-0.711875 1.1725 -0.36125 0.595 0 0 Z " fill="#F1F2F2" transform="translate(558,313)"/>
<path d="M0 0 C-0.33 2.31 -0.66 4.62 -1 7 C-3.475 6.01 -3.475 6.01 -6 5 C-6 3.68 -6 2.36 -6 1 C-3 0 -3 0 0 0 Z " fill="#ECECED" transform="translate(565,323)"/>
<path d="M0 0 C2.31 0 4.62 0 7 0 C6.34 1.98 5.68 3.96 5 6 C3.68 6 2.36 6 1 6 C0.67 4.02 0.34 2.04 0 0 Z " fill="#F2F2F2" transform="translate(548,311)"/>
<path d="M0 0 C-0.66 1.98 -1.32 3.96 -2 6 C-5.16115776 4.63016497 -5.9927092 4.0109362 -8 1 C-3.375 -1.125 -3.375 -1.125 0 0 Z " fill="#EFEFF0" transform="translate(545,331)"/>
<path d="M0 0 C1.2065625 0.0309375 1.2065625 0.0309375 2.4375 0.0625 C3 2 3 2 3.4375 4.0625 C2.4375 5.0625 2.4375 5.0625 -0.125 5.125 C-1.3315625 5.0940625 -1.3315625 5.0940625 -2.5625 5.0625 C-3.125 3.125 -3.125 3.125 -3.5625 1.0625 C-2.5625 0.0625 -2.5625 0.0625 0 0 Z " fill="#DADADA" transform="translate(749.5625,456.9375)"/>
<path d="M0 0 C-0.33 1.65 -0.66 3.3 -1 5 C-2.65 4.67 -4.3 4.34 -6 4 C-6 2.68 -6 1.36 -6 0 C-3.50907189 -1.24546405 -2.58919267 -0.7767578 0 0 Z " fill="#D8D8D8" transform="translate(736,454)"/>
<path d="M0 0 C1.98 0.99 1.98 0.99 4 2 C4 3.65 4 5.3 4 7 C2.02 7.99 2.02 7.99 0 9 C0 6.03 0 3.06 0 0 Z " fill="#F9F9F9" transform="translate(862,428)"/>
<path d="M0 0 C1.98 0.66 3.96 1.32 6 2 C4.35 3.65 2.7 5.3 1 7 C0.34 5.02 -0.32 3.04 -1 1 C-0.67 0.67 -0.34 0.34 0 0 Z " fill="#F4F4F4" transform="translate(556,331)"/>
<path d="M0 0 C1.65 0 3.3 0 5 0 C5 1.65 5 3.3 5 5 C3.35 5 1.7 5 0 5 C0 3.35 0 1.7 0 0 Z " fill="#FFFFFF" transform="translate(781,368)"/>
<path d="M0 0 C1.65 0 3.3 0 5 0 C5 1.65 5 3.3 5 5 C3.35 5 1.7 5 0 5 C0 3.35 0 1.7 0 0 Z " fill="#FFFFFF" transform="translate(760,368)"/>
<path d="M0 0 C1.65 0 3.3 0 5 0 C5 1.65 5 3.3 5 5 C3.35 5 1.7 5 0 5 C0 3.35 0 1.7 0 0 Z " fill="#FFFFFF" transform="translate(751,368)"/>
<path d="M0 0 C1.65 0 3.3 0 5 0 C5 1.65 5 3.3 5 5 C3.35 5 1.7 5 0 5 C0 3.35 0 1.7 0 0 Z " fill="#FFFFFF" transform="translate(781,359)"/>
<path d="M0 0 C1.65 0 3.3 0 5 0 C5 1.65 5 3.3 5 5 C3.35 5 1.7 5 0 5 C0 3.35 0 1.7 0 0 Z " fill="#FFFFFF" transform="translate(760,359)"/>
<path d="M0 0 C1.65 0 3.3 0 5 0 C5 1.65 5 3.3 5 5 C3.35 5 1.7 5 0 5 C0 3.35 0 1.7 0 0 Z " fill="#FFFFFF" transform="translate(306,261)"/>
<path d="M0 0 C1.65 0 3.3 0 5 0 C5 1.65 5 3.3 5 5 C3.35 5 1.7 5 0 5 C0 3.35 0 1.7 0 0 Z " fill="#FFFFFF" transform="translate(282,260)"/>
<path d="M0 0 C2.0625 0.4375 2.0625 0.4375 4 1 C4 1.99 4 2.98 4 4 C2.68 4.33 1.36 4.66 0 5 C-0.5625 3.0625 -0.5625 3.0625 -1 1 C-0.67 0.67 -0.34 0.34 0 0 Z " fill="#E9EAEA" transform="translate(549,323)"/>
<path d="M0 0 C1.98 0.495 1.98 0.495 4 1 C4 1.99 4 2.98 4 4 C2.35 3.67 0.7 3.34 -1 3 C-0.67 2.01 -0.34 1.02 0 0 Z " fill="#FFF3E5" transform="translate(632,333)"/>
</svg>
